<svg width="303" height="303" viewBox="0 0 303 303" fill="none" xmlns="http://www.w3.org/2000/svg">
<rect width="303" height="303" fill="#0F1C4D"/>
<ellipse cx="151.5" cy="151.5" rx="125.5" ry="123.5" fill="#FEE500"/>
<path d="M117.71 114.55C118.19 115.45 118.46 116.26 118.52 116.98C118.64 117.7 118.7 118.75 118.7 120.13V170.08C118.7 174.22 117.56 176.65 115.28 177.37C114.14 177.73 112.7 177.91 110.96 177.91C109.22 177.91 107.84 177.76 106.82 177.46C105.8 177.16 105.02 176.8 104.48 176.38C103.94 175.96 103.52 175.36 103.22 174.58C102.92 173.56 102.77 172 102.77 169.9V139.75C101.27 141.61 99.08 144.58 96.2 148.66C93.32 152.68 91.49 155.2 90.71 156.22C89.93 157.24 89.39 157.96 89.09 158.38C88.79 158.74 88.04 159.28 86.84 160C85.7 160.66 84.44 160.99 83.06 160.99C81.74 160.99 80.51 160.69 79.37 160.09C78.29 159.43 77.51 158.8 77.03 158.2L76.31 157.21C75.11 155.71 72.74 152.53 69.2 147.67C65.66 142.75 63.74 140.11 63.44 139.75V170.08C63.44 171.46 63.38 172.51 63.26 173.23C63.2 173.89 62.93 174.64 62.45 175.48C61.55 177.1 59.21 177.91 55.43 177.91C51.77 177.91 49.49 177.1 48.59 175.48C48.11 174.64 47.81 173.86 47.69 173.14C47.63 172.42 47.6 171.34 47.6 169.9V119.95C47.6 118.57 47.63 117.55 47.69 116.89C47.81 116.17 48.11 115.36 48.59 114.46C49.49 112.9 51.83 112.12 55.61 112.12C57.23 112.12 58.61 112.33 59.75 112.75C60.95 113.11 61.73 113.5 62.09 113.92L62.63 114.46L83.06 141.28C93.26 127.78 100.07 118.87 103.49 114.55C104.51 112.93 106.91 112.12 110.69 112.12C114.53 112.12 116.87 112.93 117.71 114.55ZM178.291 113.29C181.231 115.33 182.701 117.31 182.701 119.23C182.701 120.37 182.011 121.96 180.631 124L161.191 153.07V170.26C161.191 171.64 161.131 172.69 161.011 173.41C160.951 174.07 160.681 174.85 160.201 175.75C159.721 176.65 158.911 177.28 157.771 177.64C156.631 178 155.101 178.18 153.181 178.18C151.261 178.18 149.731 178 148.591 177.64C147.451 177.28 146.641 176.65 146.161 175.75C145.681 174.79 145.381 173.98 145.261 173.32C145.201 172.6 145.171 171.52 145.171 170.08V153.07L125.731 124C124.351 121.96 123.661 120.37 123.661 119.23C123.661 117.31 124.981 115.48 127.621 113.74C130.261 111.94 132.151 111.04 133.291 111.04C134.431 111.04 135.331 111.28 135.991 111.76C137.011 112.42 138.091 113.65 139.231 115.45L153.181 137.77L167.131 115.45C168.271 113.65 169.261 112.48 170.101 111.94C170.941 111.34 171.901 111.04 172.981 111.04C174.121 111.04 175.891 111.79 178.291 113.29ZM218.57 111.22C227.45 111.22 235.16 114.43 241.7 120.85C248.24 127.27 251.51 135.25 251.51 144.79C251.51 154.27 248.39 162.37 242.15 169.09C235.91 175.75 228.23 179.08 219.11 179.08C209.99 179.08 202.22 175.78 195.8 169.18C189.44 162.58 186.26 154.72 186.26 145.6C186.26 140.62 187.16 135.97 188.96 131.65C190.76 127.27 193.16 123.61 196.16 120.67C199.16 117.73 202.61 115.42 206.51 113.74C210.41 112.06 214.43 111.22 218.57 111.22ZM202.19 145.15C202.19 150.49 203.9 154.84 207.32 158.2C210.8 161.5 214.67 163.15 218.93 163.15C223.19 163.15 227.03 161.53 230.45 158.29C233.87 155.05 235.58 150.7 235.58 145.24C235.58 139.78 233.84 135.4 230.36 132.1C226.94 128.8 223.1 127.15 218.84 127.15C214.58 127.15 210.74 128.83 207.32 132.19C203.9 135.49 202.19 139.81 202.19 145.15Z" fill="#3E3800"/>
<ellipse cx="59.6284" cy="203.882" rx="11.9516" ry="13.2796" transform="rotate(-40.0339 59.6284 203.882)" fill="#BCAA00"/>
<ellipse cx="74.3184" cy="226.774" rx="7.36309" ry="10.6107" transform="rotate(-40.0339 74.3184 226.774)" fill="#BCAA00"/>
<ellipse cx="80.5671" cy="211.441" rx="4.56671" ry="5.07412" transform="rotate(-40.0339 80.5671 211.441)" fill="#BCAA00"/>
<ellipse cx="237.916" cy="96.0817" rx="7.36309" ry="10.6107" transform="rotate(55.4543 237.916 96.0817)" fill="#BCAA00"/>
<ellipse cx="252.58" cy="103.768" rx="4.56671" ry="5.07412" transform="rotate(55.4543 252.58 103.768)" fill="#BCAA00"/>
</svg>
