<svg width="36" height="23" viewBox="0 0 36 23" fill="none" xmlns="http://www.w3.org/2000/svg">
<path d="M24.375 9.5C27.0725 9.5 29.2337 7.37833 29.2337 4.75C29.2337 2.12167 27.0725 0 24.375 0C21.6775 0 19.5 2.12167 19.5 4.75C19.5 7.37833 21.6775 9.5 24.375 9.5ZM11.375 9.5C14.0725 9.5 16.2337 7.37833 16.2337 4.75C16.2337 2.12167 14.0725 0 11.375 0C8.6775 0 6.5 2.12167 6.5 4.75C6.5 7.37833 8.6775 9.5 11.375 9.5ZM11.375 12.6667C7.58875 12.6667 0 14.5192 0 18.2083V22.1667H22.75V18.2083C22.75 14.5192 15.1613 12.6667 11.375 12.6667ZM24.375 12.6667C23.9037 12.6667 23.3675 12.6983 22.7987 12.7458C24.6838 14.0758 26 15.865 26 18.2083V22.1667H35.75V18.2083C35.75 14.5192 28.1612 12.6667 24.375 12.6667Z" fill="#234BD9"/>
</svg>
