<svg width="88" height="174" viewBox="0 0 88 174" fill="none" xmlns="http://www.w3.org/2000/svg">
<path d="M25.1059 96.7803C20.4609 98.1763 16.7789 102.339 15.9602 107.102C15.1414 111.865 17.2321 117.013 21.1458 119.867C19.7966 120.555 17.9479 120.011 17.1909 118.702C19.7451 119.246 21.7123 121.248 24.1121 122.274C28.1545 123.999 32.7892 122.741 36.9965 121.469C35.5237 122.721 34.0509 123.978 32.573 125.231C34.5504 125.036 36.7081 124.605 37.9441 123.049C39.4838 121.109 38.9482 118.302 38.2942 115.915C36.9347 110.982 35.3795 106.101 33.8295 101.225C32.7377 97.7863 31.6409 94.3525 30.5491 90.9136C34.6328 92.9153 38.2891 95.8461 40.9051 99.5519C42.0792 101.215 43.0474 103.027 44.3863 104.567C45.6582 106.029 47.2701 107.241 48.1764 108.96C49.7471 111.942 48.712 115.766 46.5131 118.322C44.3142 120.878 41.1832 122.423 38.0831 123.758C42.8671 123.845 47.4297 120.119 48.2949 115.432C48.8407 112.471 48.0477 109.402 48.4391 106.414C50.3341 106.917 51.1426 109.201 51.0963 111.157C51.0499 113.451 50.1848 115.797 48.4391 117.291C46.6933 118.784 44 119.241 42.0174 118.071" fill="white"/>
<path d="M21.6815 84.4104C17.5979 85.6731 14.3587 87.6132 11.1762 90.4259C9.66223 91.7605 8.46235 93.4696 7.27277 95.071C6.70116 95.8409 6.20165 96.6673 5.79998 97.5399C4.97603 99.3414 4.04394 101.261 3.62682 103.242C3.30754 104.762 3.13761 106.327 2.97282 107.867C2.91617 108.37 2.89557 108.878 2.90587 109.386C2.91617 109.894 2.95737 110.397 3.01916 110.905C3.2097 112.476 3.35389 114.083 3.71951 115.628C4.19328 117.619 5.09962 119.564 5.95962 121.386C6.88656 123.347 8.33876 125.056 9.69312 126.719C11.0475 128.382 12.9065 129.671 14.6368 130.954V108.796L14.4875 108.868L17.5618 107.574C17.2992 107.677 17.0365 107.744 16.7585 107.785L20.183 107.328C19.8997 107.354 19.632 107.343 19.3487 107.307L22.7733 107.764C22.4952 107.713 22.2325 107.636 21.9699 107.528L25.0443 108.822C24.7868 108.698 24.555 108.56 24.3336 108.39L26.9393 110.397C26.7694 110.248 26.6201 110.094 26.4759 109.92L28.4894 112.517C28.4224 112.43 28.3607 112.337 28.304 112.24L13.7665 131.087C14.2351 131.195 14.678 131.339 15.126 131.518L12.0517 130.225C13.509 130.856 14.7861 131.811 16.1508 132.606C17.742 133.535 19.4981 134.239 21.2181 134.86C22.9381 135.481 25.1164 135.66 26.9084 135.855C29.6893 136.158 32.5525 135.66 35.2766 135.168C37.0224 134.855 38.7269 134.357 40.4212 133.843C36.2448 126.694 32.0684 119.544 27.8972 112.399C26.4244 113.651 24.9516 114.909 23.4736 116.161L21.4601 118.758L20.1624 121.823L19.7041 125.236C19.6371 127.002 20.0079 128.649 20.8112 130.179C21.1151 131.267 21.6712 132.211 22.4643 133.012C23.0359 133.977 23.8083 134.742 24.7713 135.311C25.5747 136.107 26.5222 136.656 27.6139 136.959C29.1485 137.765 30.8016 138.129 32.5731 138.063C34.2158 137.898 35.8688 137.703 37.4961 137.4C38.0523 137.298 38.6033 137.154 39.1337 136.959C40.4263 136.487 42.0999 135.912 43.3565 135.096C44.4276 134.403 45.4987 133.541 46.472 132.709C47.0951 132.175 47.5637 131.452 48.0529 130.82C48.4907 130.256 49.0623 129.624 49.4331 128.962C49.5103 128.824 49.5772 128.685 49.6442 128.541C50.1128 127.551 50.6484 126.334 51.014 125.303C51.565 123.753 51.6577 122.033 51.7968 120.421C51.8431 119.867 51.8225 119.308 51.7607 118.753C51.5753 117.085 51.3951 115.397 51.0294 113.754C50.4063 110.967 49.5 108.221 48.6606 105.49C47.8212 102.76 46.9046 99.8855 46.0137 97.0882C44.9941 93.8905 43.9796 90.6929 42.9599 87.5003C36.6568 92.3302 30.3536 97.16 24.0504 101.99C25.8116 102.862 27.4801 103.889 29.0404 105.08L26.4347 103.073C28.2062 104.448 29.8026 106.014 31.1827 107.78L29.1691 105.182C30.3948 106.779 31.3629 108.544 32.5628 110.156C33.7626 111.768 34.9059 113.302 36.286 114.693C36.9709 115.386 37.6661 116.059 38.2789 116.818L36.2654 114.221C36.6825 114.76 37.0327 115.325 37.3056 115.951L36.0079 112.887C36.219 113.42 36.3632 113.965 36.4508 114.534L35.9924 111.121C36.08 111.824 36.0697 112.517 35.9821 113.215L36.4405 109.802C36.3169 110.644 36.0851 111.449 35.7556 112.235L37.0533 109.171C36.7082 109.956 36.2808 110.69 35.7659 111.372L37.7794 108.775C37.0584 109.704 36.2036 110.51 35.2766 111.229L37.8824 109.222C35.9615 110.669 33.7884 111.706 31.5895 112.661L28.9838 114.668C27.7272 115.828 26.8415 117.208 26.3214 118.8C25.7395 119.8 25.4459 120.878 25.4408 122.038C25.0597 123.742 25.1318 125.451 25.6725 127.156C26.1051 128.177 26.5377 129.198 26.9702 130.22L28.9838 132.817C30.1476 134.069 31.5328 134.952 33.1292 135.471C34.6638 136.276 36.3169 136.641 38.0884 136.574C42.1154 136.605 46.0961 135.476 49.5927 133.515C50.015 133.279 50.4166 133.012 50.8029 132.725C51.9667 131.867 53.1717 131.005 54.2429 130.025C55.6848 128.7 56.8846 127.058 57.9558 125.446C59.0269 123.835 59.789 121.879 60.3967 120.047C61.061 118.045 61.2515 115.858 61.3545 113.769C61.473 111.311 61.025 108.857 61.3185 106.399C55.8856 110.526 50.4527 114.647 45.0198 118.774C45.1279 118.805 45.2309 118.835 45.3339 118.877L42.2596 117.583C42.5119 117.691 42.7333 117.819 42.9548 117.978L40.3491 115.971C40.5602 116.141 40.7404 116.326 40.9155 116.531L38.902 113.934C39.1389 114.247 39.3294 114.57 39.4891 114.929L38.1913 111.865C38.4128 112.404 38.5518 112.953 38.6342 113.528L38.1759 110.115C38.2583 110.854 38.2326 111.583 38.1347 112.317L38.593 108.904C38.4694 109.689 38.2635 110.443 37.9596 111.183L39.2573 108.118C38.9895 108.719 38.6703 109.278 38.2737 109.802L40.2873 107.205C39.9216 107.667 39.5097 108.072 39.0462 108.437L41.6519 106.43C41.2296 106.733 40.7919 106.979 40.313 107.184L43.3874 105.891C42.9033 106.081 42.4141 106.209 41.9043 106.286L45.3288 105.829C44.819 105.891 44.3194 105.891 43.8096 105.829L47.2342 106.286C46.7913 106.214 46.3793 106.101 45.9622 105.932L49.0365 107.225C48.8614 107.143 48.6967 107.061 48.5267 106.969C47.0488 106.029 45.4524 105.521 43.7427 105.444C42.033 105.064 40.3182 105.136 38.6085 105.675C36.9348 106.07 35.4723 106.84 34.2313 107.97C32.8306 108.873 31.7234 110.074 30.9149 111.568L29.6172 114.632C29.0044 116.906 29.0044 119.179 29.6172 121.453C30.6419 124.61 32.5679 127.458 35.5341 129.121C36.8782 129.876 38.3355 130.533 39.8341 130.918C40.5602 131.103 41.3996 131.164 42.0999 131.257C42.8003 131.349 43.6242 131.508 44.3761 131.534C47.7594 131.642 50.324 130.661 53.3108 129.337C53.7279 129.152 54.1193 128.952 54.4952 128.695C55.6693 127.9 57.0958 126.909 58.1205 125.795C59.1453 124.682 60.0414 123.516 60.8499 122.274C61.406 121.427 61.7511 120.463 62.1424 119.533C62.5338 118.604 62.9818 117.681 63.2342 116.695C63.6101 115.207 63.7491 113.615 63.9139 112.117C64.1302 110.146 63.78 108.098 63.3835 106.183C63.3011 105.788 63.1724 105.408 63.0282 105.034C62.5287 103.766 62.0085 102.159 61.1434 100.974C59.2174 98.3252 58.6819 97.6785 55.9577 95.8102C54.7372 94.9735 53.2799 94.4346 51.874 94.0188C49.5927 93.408 47.3114 93.408 45.0301 94.0188C43.3565 94.4141 41.894 95.184 40.6529 96.3132C39.2522 97.2165 38.145 98.4176 37.3365 99.9112C36.1727 101.913 35.5856 104.074 35.5805 106.389C35.2406 109.232 35.874 112.091 35.5135 114.935L35.9718 111.521C35.8483 112.337 35.6423 113.118 35.3281 113.882L36.6258 110.818C36.2705 111.65 35.8122 112.42 35.2612 113.138L37.2747 110.541C36.7082 111.254 36.0697 111.886 35.359 112.45L37.9648 110.443C37.1923 111.029 36.3632 111.516 35.4723 111.896L38.5467 110.603C37.7639 110.921 36.9554 111.142 36.1212 111.27L39.5457 110.813C39.0668 110.875 38.5879 110.905 38.1038 110.9C40.2718 118.871 42.4347 126.842 44.6027 134.814C46.3484 134.059 48.089 133.253 49.6906 132.222C51.2921 131.19 52.9245 129.943 54.387 128.639C55.8495 127.335 57.0185 125.713 58.136 124.163C59.2535 122.613 59.9229 120.735 60.6387 118.959C61.3545 117.183 61.5193 115.14 61.7459 113.205C61.7922 112.789 61.8283 112.379 61.818 111.963C61.7871 110.449 61.5142 108.904 61.2464 107.42C61.1743 107.015 61.061 106.62 60.922 106.23C60.4379 104.895 59.8714 103.376 59.1041 102.103C58.2956 100.763 57.2451 99.5262 56.2409 98.3406C55.9062 97.9454 55.5406 97.5707 55.1749 97.2011C54.3973 96.4158 53.6146 95.6459 52.9348 94.7733L54.9484 97.3705C53.9184 96.0206 53.079 94.5424 52.1057 93.1514C50.6278 91.0419 49.0262 88.9375 47.1827 87.1154C45.37 85.3189 43.2792 83.7586 41.2091 82.2804C39.8959 81.3462 38.5055 80.5301 37.0636 79.8115L33.9892 78.5181L30.5647 78.0613L27.1402 78.5181C25.4665 78.9133 24.004 79.6832 22.763 80.8124C21.7948 81.3821 21.0275 82.152 20.4559 83.1119C19.6577 83.9126 19.1067 84.857 18.8029 85.9451C18.221 86.946 17.9274 88.0238 17.9223 89.1838C17.5412 90.8879 17.6133 92.5971 18.154 94.3011C19.6423 98.977 21.1408 103.648 22.6188 108.329C23.35 110.649 24.071 112.974 24.761 115.309C25.3944 117.455 26.136 119.626 26.4553 121.848L25.997 118.435C26.0999 119.22 26.1308 119.995 26.0279 120.781L26.4862 117.367C26.4141 117.809 26.3059 118.22 26.136 118.635L27.4337 115.571C27.2741 115.925 27.0835 116.243 26.8518 116.551L28.8653 113.954C28.6284 114.237 28.3709 114.488 28.0826 114.714L30.6883 112.707C30.2918 112.994 29.8695 113.225 29.4163 113.415L32.4907 112.122C31.6616 112.445 30.8016 112.625 29.9261 112.748L33.3507 112.291C33.1035 112.322 32.8511 112.353 32.604 112.379C35.6371 119.682 38.6754 126.981 41.7086 134.285C43.1814 133.032 44.6542 131.775 46.1321 130.523L48.1457 127.925C49.088 126.452 49.5979 124.861 49.6751 123.157C49.9841 122.018 49.9841 120.883 49.6751 119.744C49.5979 118.035 49.088 116.444 48.1457 114.976L46.1321 112.379L43.5264 110.372C42.0485 109.432 40.4521 108.924 38.7424 108.847C37.0327 108.467 35.3178 108.539 33.6082 109.078C31.5483 109.699 29.4678 110.29 27.3307 110.577L30.7552 110.12C29.4884 110.279 28.2165 110.32 26.9445 110.171L30.369 110.628C29.4009 110.495 28.4739 110.259 27.5728 109.884L30.6471 111.177C29.406 110.633 28.2989 109.869 27.1556 109.155C26.6046 108.811 26.0433 108.478 25.4562 108.206C24.21 107.62 22.9226 107.071 21.63 106.599C21.3108 106.481 20.9812 106.389 20.6516 106.317L17.2271 105.86L13.8026 106.317L10.7282 107.61C9.22966 108.416 8.02463 109.52 7.11829 110.916C6.32009 111.716 5.76908 112.661 5.46525 113.749C4.88334 114.75 4.5898 115.828 4.58465 116.988C4.27567 118.127 4.27567 119.261 4.58465 120.401C4.6619 122.11 5.17171 123.701 6.1141 125.169C6.17075 125.267 6.2377 125.354 6.2995 125.446C6.86081 126.278 7.73625 127.438 8.416 128.172C9.26054 129.085 10.3832 129.804 11.3822 130.528C11.5624 130.661 11.7427 130.784 11.9435 130.892C12.8756 131.395 14.1836 131.878 15.1724 132.257C15.3011 132.309 15.4298 132.36 15.5689 132.401C15.677 132.432 15.7852 132.452 15.8933 132.478C16.8048 132.683 18.5505 132.884 19.4826 132.961C19.7092 132.981 19.9255 132.986 20.1521 132.976C21.0481 132.94 22.8608 132.668 23.7414 132.499C23.8495 132.478 23.9577 132.463 24.0658 132.432C24.174 132.401 24.277 132.365 24.3851 132.329C25.4305 131.975 26.6973 131.4 27.6912 130.933C29.6275 129.794 31.1672 128.259 32.3104 126.329C33.4743 124.327 34.0613 122.167 34.0665 119.852C34.0613 117.537 33.4743 115.376 32.3104 113.374C31.1672 111.444 29.6275 109.91 27.6912 108.77C27.5882 108.693 27.4852 108.616 27.3874 108.539L29.9931 110.546C29.1434 109.874 28.3864 109.104 27.7221 108.247L29.7356 110.844C29.0456 109.925 28.4739 108.94 28.0156 107.882L29.3133 110.946C28.8499 109.828 28.5306 108.662 28.3606 107.461L28.819 110.875C28.6748 109.735 28.6748 108.596 28.819 107.461L28.3606 110.875C28.5151 109.828 28.7932 108.811 29.1949 107.831L27.8972 110.895C28.3607 109.807 28.9529 108.796 29.6687 107.851L27.6551 110.449C28.3864 109.52 29.2155 108.683 30.1476 107.959L27.5419 109.966C28.4327 109.289 29.3906 108.724 30.4205 108.283L27.3462 109.576C27.7478 109.412 28.1547 109.263 28.5718 109.135C31.7285 108.159 34.5763 106.117 36.2654 103.237C37.2078 101.764 37.7176 100.173 37.7948 98.4689C38.1759 96.7648 38.1038 95.0556 37.5631 93.3516C37.1305 92.3302 36.698 91.3088 36.2654 90.2874C35.1222 88.3575 33.5824 86.8228 31.6461 85.6833L28.5718 84.3899C26.2905 83.7791 24.0092 83.7791 21.7279 84.3899L21.6815 84.4104Z" fill="white"/>
<path d="M25.6622 107.641C27.4337 107.708 29.0867 107.338 30.6213 106.538C32.2177 106.019 33.5978 105.136 34.7668 103.884C36.0233 102.724 36.9091 101.343 37.4292 99.7522C38.2377 98.2226 38.6033 96.575 38.5363 94.8094L38.078 91.3961C37.4652 89.2199 36.3632 87.3362 34.7668 85.7348C32.2486 83.4302 29.1537 81.9776 25.6622 81.9776C23.8907 81.9109 22.2377 82.2805 20.7031 83.0812C19.1067 83.5996 17.7266 84.4824 16.5576 85.7348C15.3011 86.8947 14.4153 88.2754 13.8952 89.8666C13.0867 91.3961 12.7211 93.0437 12.788 94.8094L13.2464 98.2226C13.8592 100.399 14.9612 102.283 16.5576 103.884C19.0758 106.189 22.1707 107.641 25.6622 107.641Z" fill="white"/>
<path d="M26.6565 142.015C26.5535 143.252 26.4248 144.55 25.7399 145.592C25.1528 146.48 24.2207 147.07 23.3968 147.743C20.3533 150.222 18.6385 153.933 17.0215 157.505C24.1692 158.542 31.2397 153.861 38.3874 154.934C39.6027 155.113 40.8335 155.462 42.0437 155.242C43.2539 155.021 44.4331 153.958 44.2426 152.747C44.1911 152.419 44.0418 152.111 43.8976 151.808C42.3321 148.559 40.7614 145.305 39.1959 142.056C40.2568 142.148 40.7614 143.38 41.0601 144.396C42.3475 148.749 44.2169 152.932 46.6011 156.802C45.4785 153.912 44.5928 150.93 43.9645 147.897C45.566 149.406 46.8483 151.248 47.7135 153.271C48.2799 154.59 48.6455 156.171 47.9246 157.413" fill="white"/>
<path d="M13.7826 142.015C13.7466 142.431 13.7054 142.846 13.6487 143.262L14.107 139.849C14.0247 140.398 13.9011 140.932 13.7002 141.45L14.9979 138.386C14.8589 138.709 14.6941 139.002 14.4933 139.284L16.5068 136.687C15.7343 137.673 14.6426 138.309 13.7311 139.146C13.2676 139.566 12.8351 140.018 12.4334 140.495C11.3674 141.753 10.3478 143.062 9.4054 144.412C7.96865 146.465 6.92842 148.749 5.89848 151.023C4.73466 153.024 4.1476 155.185 4.14245 157.5C4.0755 159.266 4.44627 160.913 5.24962 162.443C5.76974 164.034 6.65549 165.41 7.912 166.575C9.5187 168.166 11.4138 169.264 13.5921 169.875C16.1309 170.224 18.5358 170.64 21.0797 170.383C23.6236 170.127 26.0285 169.793 28.454 169.233C31.2606 168.587 34.0208 167.735 36.8789 167.334L33.4543 167.791C35.0198 167.586 36.5905 167.529 38.1611 167.724L34.7366 167.268C36.7604 167.555 38.7688 168.002 40.8132 168.125C43.8 168.299 46.622 167.417 49.238 166.082C49.408 165.995 49.5676 165.902 49.7272 165.8C50.2165 165.43 50.7005 165.061 51.1795 164.686C51.6841 164.337 52.1631 163.962 52.6214 163.562C53.6204 162.597 54.5267 161.473 55.1807 160.251C56.5299 157.711 56.9625 156.058 57.1067 153.189C57.1428 152.47 56.9625 151.726 56.8698 151.038C56.7617 150.232 56.7514 149.57 56.4991 148.852C55.5464 146.126 54.1199 143.508 52.8634 140.906C52.0085 139.13 51.1486 137.354 50.2937 135.578L35.7562 154.426C35.9262 154.451 36.0601 154.487 36.2197 154.549L33.1453 153.255C33.238 153.302 33.3307 153.353 33.4131 153.415L30.8074 151.408C30.9361 151.515 31.0391 151.618 31.1473 151.746L29.1338 149.149C29.3449 149.432 29.5045 149.724 29.6436 150.047L28.3459 146.983C28.7733 148.051 29.0462 149.18 29.4273 150.263C30.1843 152.414 31.1009 154.518 32.0073 156.612C33.0063 158.912 34.1598 161.139 35.4678 163.28C36.2763 164.773 37.3835 165.974 38.7842 166.878C40.0253 168.012 41.4878 168.777 43.1614 169.172L46.586 169.629C48.3575 169.695 50.0105 169.326 51.5451 168.525C52.6368 168.222 53.5844 167.668 54.3877 166.878C55.7884 165.974 56.8956 164.773 57.7041 163.28C58.1367 162.258 58.5692 161.237 59.0018 160.215C59.6146 157.942 59.6146 155.668 59.0018 153.394C57.8843 150.499 56.9986 147.522 56.3652 144.489C49.1917 148.651 42.0182 152.814 34.8499 156.971C35.4678 157.562 36.0343 158.193 36.5596 158.865L34.5461 156.268C35.3649 157.346 36.0446 158.506 36.5853 159.748L35.2876 156.684C35.5554 157.331 35.7665 157.988 35.8644 158.681L35.406 155.267C35.4421 155.606 35.4472 155.935 35.4112 156.279L35.8695 152.865C35.8283 153.132 35.7665 153.379 35.6738 153.635L36.9715 150.571C36.92 150.694 36.8634 150.817 36.7965 150.935C35.8541 152.408 35.3442 154 35.267 155.704C34.8859 157.408 34.958 159.117 35.4987 160.821C35.8953 162.489 36.6677 163.947 37.8006 165.184C38.707 166.58 39.912 167.683 41.4105 168.489L44.4849 169.783C46.7662 170.393 49.0475 170.393 51.3288 169.783L54.4031 168.489C56.3394 167.35 57.8792 165.815 59.0224 163.885C59.7279 162.561 60.4179 161.17 60.6909 159.687C60.8145 159.035 61.2161 156.925 61.175 155.673C61.1338 154.421 60.8814 153.091 60.6806 151.854C60.3613 149.842 59.3674 147.912 58.4971 146.116C58.0645 145.223 57.5496 144.371 56.9574 143.57C55.7575 141.938 54.5216 140.239 53.0436 138.822L50.4379 136.815C48.9599 135.876 47.3636 135.368 45.6539 135.291C44.5106 134.983 43.3726 134.983 42.2293 135.291C40.5145 135.368 38.9181 135.876 37.4453 136.815L34.8396 138.822L32.8261 141.419C31.8837 142.892 31.3739 144.484 31.2966 146.188C30.9155 147.892 30.9876 149.601 31.5283 151.305C32.1669 154.344 33.0475 157.315 34.165 160.21C42.0079 156.915 49.8508 153.62 57.6938 150.325C56.3394 148.118 55.155 145.823 54.1405 143.442L55.4382 146.506C54.707 144.776 54.0684 143.005 53.5226 141.209C53.4144 140.855 53.3011 140.506 53.1672 140.162C52.6729 138.889 52.2197 137.488 51.4627 136.333C50.0002 134.105 49.5007 133.648 47.7034 132.263C46.1122 131.041 46.4572 131.236 44.5982 130.451C44.0729 130.23 43.2747 129.778 42.6001 129.681L39.1756 129.224L35.7511 129.681L32.6767 130.974C31.1782 131.78 29.9731 132.884 29.0668 134.28C28.2686 135.081 27.7176 136.025 27.4138 137.113C26.8319 138.114 26.5383 139.192 26.5332 140.352C26.2242 141.491 26.2242 142.626 26.5332 143.765C26.6104 145.474 27.1202 147.065 28.0626 148.533C29.6848 151.9 31.4048 155.242 32.9342 158.65L31.6365 155.586C31.7137 155.781 31.7704 155.955 31.8116 156.155L31.3533 152.742C31.3739 152.932 31.3739 153.086 31.3533 153.276L31.8116 149.863C31.791 149.976 31.7601 150.089 31.7189 150.201L33.0166 147.137C32.9188 147.363 32.8055 147.553 32.6561 147.748L34.6696 145.151C34.546 145.295 34.4173 145.413 34.2731 145.541L36.8789 143.534C36.6214 143.729 36.3587 143.878 36.0652 144.006L39.1395 142.713C38.8821 142.805 38.6297 142.862 38.362 142.903L41.7865 142.446C41.2921 142.492 40.8183 142.477 40.324 142.42L43.7485 142.877C41.0398 142.513 38.3414 141.856 35.5914 141.948C32.8415 142.04 30.277 142.456 27.6867 143.011C24.5506 143.678 21.4865 144.679 18.2989 145.11L21.7234 144.653C20.2248 144.843 18.7263 144.889 17.2277 144.709L20.6523 145.166L20.436 145.135L28.1296 163.983C29.2882 161.427 30.4727 158.855 32.1927 156.617L30.1791 159.214C30.7353 158.506 31.343 157.834 32.0124 157.228C32.6819 156.622 33.4852 156.109 34.1495 155.473C36.3587 153.348 37.744 150.781 38.6658 147.897C39.2683 146.018 39.3558 143.986 39.5206 142.025C39.5876 140.259 39.2168 138.612 38.4134 137.082C37.8933 135.491 37.0076 134.116 35.7511 132.95C34.5872 131.698 33.202 130.815 31.6056 130.297C30.071 129.491 28.418 129.127 26.6465 129.193L23.2219 129.65C21.0385 130.261 19.1486 131.359 17.5419 132.95L15.5283 135.548C14.3645 137.549 13.7775 139.71 13.7723 142.025L13.7826 142.015Z" fill="white"/>
<path d="M6.60333 159.959C5.57339 160.801 5.40345 162.284 5.31591 163.613C5.16657 165.779 5.01724 167.94 4.87305 170.106C22.0884 168.048 39.5715 169.988 56.828 168.279C57.2709 168.233 57.7652 168.161 58.0227 167.802C58.1824 167.586 58.2184 167.309 58.2544 167.042C58.5068 164.891 58.548 162.72 58.3883 160.564" fill="white"/>
<path d="M3.87423 157.233C1.99975 158.881 1.60838 161.386 1.44359 163.731C1.29425 165.856 1.15005 167.976 1.00586 170.101C0.877122 172.005 2.89064 174.187 4.86811 173.95C21.2028 172.015 37.6869 173.637 54.0577 172.364C55.4172 172.257 56.8488 172.216 58.1877 171.938C60.057 171.554 61.5092 170.106 61.947 168.258C62.2611 166.924 62.2868 165.415 62.328 164.05C62.3589 162.884 62.328 161.719 62.2456 160.559C62.1735 159.528 61.8646 158.583 61.1127 157.839C60.4433 157.172 59.3412 156.669 58.3834 156.71C56.4111 156.797 54.3666 158.409 54.5211 160.559C54.6756 162.71 54.6499 165.03 54.3615 167.237L54.5006 166.216C54.48 166.349 54.4491 166.477 54.3976 166.606L54.7889 165.687C55.9528 164.763 56.2566 164.455 55.7004 164.773L56.6222 164.383C56.4059 164.465 56.1999 164.511 55.9682 164.542L56.993 164.404C43.5369 165.882 29.9367 164.876 16.4394 165.384C12.572 165.528 8.71491 165.795 4.87326 166.251L8.73551 170.101C8.9106 167.581 8.95693 165.009 9.28651 162.505L9.14748 163.526C9.21957 163.038 9.32772 162.571 9.50796 162.114L9.11658 163.033C9.20413 162.843 9.30712 162.669 9.40496 162.489C9.56975 162.243 9.46161 162.387 9.07024 162.92C9.15263 162.833 9.24016 162.751 9.33286 162.674C10.852 161.334 10.8057 158.578 9.33286 157.228C7.71071 155.745 5.49122 155.801 3.86907 157.228L3.87423 157.233Z" fill="white"/>
<path d="M32.6503 5.67479C27.2329 8.29247 21.5168 11.1719 18.3858 16.3046C15.8573 20.4518 15.3887 25.4973 15.0797 30.3425C14.6008 37.8414 14.3433 45.3968 15.2702 52.8546C16.192 60.3124 18.3343 67.7189 22.3613 74.0731C23.5148 75.8952 24.8486 77.6506 26.6304 78.8619C27.6758 73.796 26.7591 68.5658 26.4604 63.4074C26.0588 56.4475 26.79 49.4721 27.5831 42.543C28.1598 37.4975 28.7778 32.4213 30.2506 27.5555C32.3311 20.6777 36.1109 14.231 36.7752 7.07602C36.8061 6.75779 36.8267 6.42417 36.698 6.13161C36.1985 4.97162 34.4012 5.66453 33.2065 5.24365C35.5908 4.43781 38.1914 5.51568 40.3285 6.83992C41.585 7.62009 42.8055 8.51831 43.6346 9.73989C45.2052 12.0599 45.0868 15.1395 44.3504 17.8393C43.341 21.54 41.3275 24.8711 39.7208 28.3511C36.6156 35.0749 35.0346 42.3839 33.4743 49.621C32.4958 54.1583 31.5174 58.6904 30.5441 63.2277C33.4794 59.4296 34.6021 54.574 35.4209 49.8519C36.492 43.6978 37.182 37.477 37.4859 31.2408C37.6095 28.7257 37.6713 26.2005 37.4189 23.6957C39.8032 31.0149 42.1978 38.8988 39.9474 46.259C38.9381 49.5594 37.0533 52.5107 35.493 55.5903C31.641 63.2072 29.7768 71.8148 30.127 80.3402C28.8344 67.7548 26.2545 55.3337 23.2162 43.0511C21.867 37.6053 20.4199 31.9593 21.4962 26.452C22.7836 19.8564 27.4698 14.5133 31.9809 9.51405C31.3114 13.5586 29.5142 17.3158 28.2165 21.2012C23.7054 34.6951 25.2245 49.544 21.3777 63.2431C20.0028 57.5561 18.6175 51.8024 18.5918 45.9511C18.5866 44.1136 18.7256 42.2247 19.4878 40.5515C20.6001 38.1186 22.8711 36.4505 25.0185 34.8542C28.4431 32.3032 31.7903 29.6496 35.0964 26.9447C36.0646 26.1543 37.043 25.3433 37.7434 24.3116C38.593 23.0592 38.9844 21.5656 39.2831 20.0823C39.8393 17.3106 40.1225 14.4876 40.1276 11.6595C38.2635 19.4458 36.3993 27.227 34.5351 35.0133C33.9738 37.3589 33.3455 39.8278 31.6616 41.5626" fill="white"/>
<path d="M30.699 2.34891C25.987 4.62783 21.1051 7.10179 17.5519 11.0437C15.4405 13.3893 13.9265 16.0635 12.9429 19.0558C11.9593 22.0482 11.6349 25.0046 11.3826 28.0124C10.3681 40.1615 10.1209 52.9368 13.8544 64.6804C14.8843 67.9191 16.213 71.1014 17.866 74.0732C19.6066 77.1991 21.6973 80.1144 24.6739 82.1829C26.6359 83.5482 29.8853 82.2034 30.3488 79.8835C30.9256 77.004 31.0594 74.0938 30.9049 71.1681C30.7659 68.494 30.4466 65.8301 30.3024 63.1509C30.0089 57.7359 30.4003 52.3106 30.9564 46.9264C31.2706 43.9135 31.6053 40.9006 32.007 37.898L31.8679 38.9194C32.2387 36.1991 32.6816 33.489 33.351 30.8251C33.9793 28.2998 34.8496 25.8515 35.792 23.4289C36.7344 21.0063 37.7025 18.712 38.547 16.3098C39.474 13.6562 40.1331 10.9821 40.4988 8.20018C40.6275 7.23524 40.7253 6.35754 40.4885 5.38233C40.1692 4.08376 39.3298 3.01102 38.1969 2.31298C36.7807 1.44042 35.1998 1.70219 33.6497 1.50201L34.6745 1.64059C34.52 1.61493 34.3758 1.579 34.2213 1.53281V8.95469C34.5612 8.8469 34.9011 8.76991 35.2564 8.71859L34.2316 8.85717C34.726 8.80584 35.2049 8.81098 35.6993 8.85717L34.6745 8.71859C35.5396 8.83664 36.3584 9.08814 37.1669 9.42177L36.2451 9.03168C36.8528 9.29858 37.4347 9.59628 38.0063 9.93503C38.2844 10.0993 38.5573 10.2687 38.8251 10.4432C39.0363 10.5818 39.474 10.7768 39.6079 10.9872C39.5564 10.9102 38.923 10.4278 39.3298 10.7768C39.4379 10.8692 39.5461 10.9564 39.6491 11.0488C39.886 11.2593 40.1074 11.48 40.3185 11.7161C40.8026 12.255 40.2928 11.5313 40.1795 11.5056C40.2413 11.521 40.3752 11.7931 40.4112 11.8495C40.5915 12.137 40.746 12.4347 40.885 12.7426L40.4936 11.8239C40.782 12.5117 40.9622 13.22 41.0704 13.9591L40.9313 12.9377C41.0446 13.8975 41.0189 14.8573 40.9004 15.8171L41.0395 14.7957C40.7871 16.6229 40.1949 18.3681 39.4843 20.067L39.8757 19.1482C38.7942 21.6992 37.4347 24.1167 36.2864 26.6368C34.9938 29.4752 33.8969 32.3906 32.9906 35.3727C31.3118 40.8903 30.1943 46.562 28.979 52.1977C28.258 55.5391 27.5371 58.8753 26.8213 62.2167C26.4144 64.1055 27.2281 65.9892 29.0562 66.7591C29.8235 67.0825 30.7556 67.216 31.5693 66.9542C32.5889 66.6257 33.2326 66.0303 33.8763 65.1834C36.9815 61.1132 38.2587 55.9446 39.1238 50.9915C40.1486 45.13 40.8644 39.2068 41.2352 33.2734C41.436 30.0911 41.5853 26.8883 41.2815 23.7061C38.753 24.0448 36.2246 24.3887 33.6961 24.7275C35.0092 28.7618 36.2812 32.8371 36.8528 37.0511L36.7138 36.0297C37.0124 38.3651 37.0845 40.7107 36.7807 43.0512L36.9197 42.0298C36.6623 43.8878 36.1525 45.6689 35.4315 47.3986L35.8229 46.4799C34.9474 48.5278 33.8403 50.468 32.7949 52.4338C31.6465 54.5947 30.6372 56.8274 29.7566 59.1114C28.0623 63.505 27.053 68.0834 26.5329 72.7541C26.2497 75.2743 26.1673 77.815 26.2651 80.3505H33.9896C32.7022 67.9089 30.2612 55.6366 27.295 43.4926C26.4762 40.1461 25.5853 36.815 25.1219 33.3966L25.2609 34.418C24.9725 32.1699 24.885 29.9115 25.1631 27.6582L25.024 28.6797C25.2712 26.8832 25.7604 25.1484 26.4505 23.4751L26.0591 24.3938C27.0787 21.9866 28.4743 19.7693 30.0449 17.6854C30.1273 17.5725 30.2097 17.4442 30.3024 17.3467C30.117 17.5417 29.7772 18.0139 30.1582 17.5314C30.3591 17.2799 30.5599 17.0284 30.7608 16.7769C31.1676 16.2791 31.5847 15.7812 32.0018 15.2936C32.8876 14.2619 33.7888 13.2559 34.7002 12.2448L28.2426 8.49788C27.7482 11.3825 26.7131 14.1182 25.6883 16.8436C24.6636 19.5691 23.7521 22.2997 23.0878 25.133C21.7128 31.0253 21.1463 37.0768 20.585 43.0923C20.2812 46.3721 19.9774 49.6519 19.5448 52.9163L19.6838 51.8948C19.2152 55.38 18.5869 58.8394 17.6394 62.227H25.0858C24.1743 58.4596 23.2731 54.6819 22.7376 50.8375L22.8766 51.8589C22.4955 49.0154 22.2175 46.0538 22.5985 43.1949L22.4595 44.2163C22.5882 43.3797 22.7891 42.5739 23.1032 41.7886L22.7118 42.7073C22.9333 42.1992 23.1959 41.7167 23.51 41.2548C23.5512 41.1983 23.7057 40.9314 23.7469 40.9263C23.7521 40.9263 23.0981 41.7064 23.5203 41.2291C23.7006 41.0238 23.8757 40.8185 24.0662 40.6234C24.4473 40.2282 24.8541 39.8535 25.2712 39.4943C25.4824 39.3146 25.6986 39.1401 25.9149 38.9656C25.9973 38.8989 26.0797 38.8373 26.1621 38.7705C26.5277 38.478 25.436 39.3197 25.9561 38.9245C28.2529 37.1897 30.5548 35.4599 32.8155 33.6789C34.865 32.0672 36.9661 30.4812 38.9075 28.7412C41.0807 26.7908 42.3269 24.2501 42.9243 21.422C43.604 18.2243 43.9593 14.9292 43.9696 11.6596C43.9748 9.73999 42.4968 8.12833 40.6224 7.87682C38.7479 7.62532 36.8322 8.75965 36.3842 10.6331C35.2616 15.3141 34.1441 19.99 33.0215 24.671C32.4653 26.991 31.9091 29.311 31.353 31.6258C30.8586 33.6892 30.4569 35.809 29.6536 37.7799L30.0449 36.8612C29.8441 37.3334 29.6227 37.7953 29.3549 38.2367C29.2365 38.4318 29.0562 38.6268 28.9584 38.8321C29.36 38.3291 29.4321 38.2265 29.1798 38.5344C29.0923 38.6371 28.9944 38.7397 28.9017 38.8373C27.5165 40.3052 27.3311 42.8459 28.9017 44.2831C30.4724 45.7202 32.8824 45.8485 34.3655 44.2831C37.3832 41.0854 38.0836 36.6661 39.0672 32.5548C40.0765 28.3306 41.091 24.1064 42.1003 19.8822C42.6771 17.4801 43.2487 15.078 43.8254 12.6759L36.24 11.6545C36.2348 13.569 36.1061 15.4732 35.8538 17.3723L35.9928 16.3509C35.7302 18.2397 35.4315 20.185 34.7105 21.961L35.1019 21.0422C34.9577 21.3707 34.8032 21.694 34.623 22.002C34.5252 22.1663 34.4067 22.4178 34.2677 22.5461C34.2986 22.5153 34.9011 21.8224 34.4582 22.2843C33.8969 22.8746 33.3201 23.4238 32.6919 23.9422C31.3839 25.0252 30.0604 26.0876 28.7369 27.1398C28.0829 27.6634 27.4238 28.1818 26.7646 28.6951C26.435 28.9517 26.1055 29.2083 25.7759 29.465C25.5853 29.6138 25.0755 29.9988 25.8634 29.3982C25.6626 29.5522 25.4669 29.7062 25.2661 29.855C23.7778 30.9945 22.2638 32.0929 20.7859 33.2478C18.0977 35.3522 15.8267 38.052 15.1315 41.4806C14.3694 45.2326 14.7762 49.1129 15.2963 52.8701C15.8164 56.6272 16.7331 60.4921 17.6446 64.2595C18.0256 65.8353 19.725 67.1595 21.3678 67.0876C23.0105 67.0158 24.6224 65.9482 25.091 64.2595C27.8615 54.3124 27.949 43.9032 29.3189 33.7302L29.1798 34.7516C29.7411 30.6249 30.529 26.5137 31.8216 22.5512C33.1296 18.5477 34.9783 14.7084 35.6941 10.5304C35.8435 9.6476 35.8589 8.87257 35.4985 8.02567C35.1843 7.28656 34.6488 6.56799 33.9175 6.18303C32.4498 5.41313 30.4106 5.48499 29.2365 6.78356C26.3269 10.0069 23.4019 13.3072 21.1515 17.0387C18.6796 21.1397 17.2429 25.7284 17.2429 30.5326C17.2429 35.3368 18.5715 40.3668 19.7405 45.1556C20.9095 49.9444 21.9497 54.4766 22.9024 59.1679C23.9838 64.47 24.9159 69.7977 25.642 75.1614L25.503 74.14C25.781 76.2033 26.0282 78.2667 26.2445 80.3351C26.3527 81.3822 26.605 82.2856 27.3774 83.0555C28.0469 83.7227 29.1489 84.2257 30.1068 84.1847C32.1306 84.0923 34.0514 82.4909 33.969 80.3351C33.8557 77.4146 33.9947 74.4941 34.381 71.5941L34.2419 72.6156C34.8496 68.1912 36.0237 63.8694 37.7489 59.7479L37.3575 60.6666C39.3246 56.0215 42.3578 51.8127 43.7534 46.9315C45.2519 41.6808 44.7421 36.1221 43.5165 30.8713C42.8676 28.0945 42.0076 25.3742 41.1219 22.6641C40.5245 20.8318 38.8303 19.6461 36.8837 19.9079C35.138 20.144 33.351 21.7813 33.5364 23.6907C33.8608 27.0834 33.6755 30.5018 33.4489 33.8893C33.2223 37.2769 32.8773 40.7004 32.4241 44.0931L32.5631 43.0717C31.8834 48.071 31.2139 53.2807 29.2416 57.9668L29.633 57.0481C28.9841 58.552 28.1859 59.9789 27.1869 61.2826L34.2471 64.2493C35.2255 59.7119 36.2039 55.1798 37.1772 50.6425C38.099 46.3567 39.026 42.0657 40.2773 37.8621C40.9828 35.501 41.7913 33.1708 42.744 30.897L42.3527 31.8157C44.3301 27.1706 47.3169 22.7617 48.3108 17.7521C48.8309 15.1345 48.9494 12.2909 47.9194 9.77079C47.2912 8.24124 46.4672 6.88108 45.2416 5.74162C44.2323 4.7972 43.0684 3.98624 41.8789 3.28306C38.9951 1.579 35.4676 0.480604 32.1512 1.52254C30.5857 2.01528 29.2365 3.51403 29.3137 5.23348C29.3909 6.95294 30.4672 8.42089 32.1512 8.94443C33.2841 9.29858 34.417 9.16 35.5654 9.27805L34.5406 9.13947C34.7311 9.17026 34.9062 9.20619 35.0813 9.27805L34.1595 8.88797C34.4891 9.06248 34.3398 8.93416 33.7012 8.49788C33.2738 7.86656 33.1502 7.72284 33.3304 8.0616L32.9391 7.14285C32.9906 7.2609 33.0163 7.38408 33.0318 7.5124L32.8927 6.49099C32.9185 7.05559 32.8258 7.63045 32.7485 8.18992L32.8876 7.16851C32.2799 11.4492 30.6681 15.4732 29.0768 19.4665C27.3929 23.6855 25.9304 27.8995 25.1013 32.3752C24.2001 37.2615 23.6903 42.2351 23.1805 47.1728C22.6912 51.9359 22.3411 56.7196 22.4852 61.5084C22.6397 66.8002 23.68 72.1074 22.9848 77.3992L23.1238 76.3778C23.0569 76.8654 22.9745 77.3479 22.8766 77.8304L28.5515 75.5309C28.4331 75.4488 28.3147 75.3667 28.2014 75.2794C28.6957 75.6644 28.7884 75.7362 28.4795 75.4796C28.2683 75.2897 28.0469 75.1049 27.846 74.9047C27.4856 74.5557 27.1457 74.181 26.8264 73.7961C26.7337 73.6832 26.6462 73.5754 26.5535 73.4624C26.9345 73.9603 27.0066 74.0476 26.7646 73.7242C26.641 73.5497 26.5123 73.3752 26.3887 73.1956C26.0797 72.749 25.781 72.2922 25.4926 71.8303C24.3237 69.9466 23.3195 67.9705 22.4543 65.9328L22.8457 66.8515C20.9198 62.2629 19.7302 57.4125 19.0607 52.4851L19.1998 53.5065C18.5663 48.7177 18.4222 43.8827 18.5252 39.058C18.623 34.4591 18.7878 29.7934 19.3852 25.2305L19.2461 26.2519C19.5654 23.9216 20.0701 21.6222 20.9867 19.4511L20.5953 20.3698C20.9558 19.5383 21.3678 18.7376 21.857 17.9728C22.0733 17.6341 22.305 17.1978 22.5934 16.9104L22.2329 17.3774C22.3153 17.2748 22.3977 17.1721 22.4801 17.0695C22.6037 16.9155 22.7324 16.7667 22.8663 16.6178C23.3864 16.0275 23.9478 15.4681 24.5348 14.9394C24.8283 14.6725 25.1322 14.4159 25.4411 14.1695C25.5441 14.0874 25.6471 14.0053 25.7501 13.9231L25.2867 14.2824C25.4618 14.1285 25.6626 14.0001 25.848 13.8667C28.5618 11.9111 31.5744 10.4278 34.5767 8.97522C36.3996 8.0924 37.033 5.3618 35.9619 3.70907C34.7569 1.8459 32.6249 1.38396 30.6784 2.32838L30.699 2.34891Z" fill="white"/>
<path d="M64.8566 48.6816C62.6371 49.4823 59.9129 48.7689 58.023 50.1753C57.4462 50.6064 57.0136 51.1967 56.5862 51.7767C53.6149 55.8572 50.5817 60.0506 49.1964 64.901C47.8163 69.7411 48.1305 75.0432 46.0294 79.6164C45.4526 80.8688 44.6802 82.0698 43.5576 82.8705C42.4349 83.6712 40.9209 84.0203 39.6387 83.507C40.4884 84.5746 41.3329 85.6371 42.1826 86.7047C42.3783 86.951 42.6306 87.2231 42.9448 87.2025C43.2434 87.182 43.4494 86.9048 43.6142 86.6482C46.1942 82.6806 48.7742 78.7079 51.3593 74.7404C52.2039 73.4418 53.0535 72.1329 54.0938 70.9883C55.237 69.7308 56.5914 68.6786 57.9612 67.6726C63.3786 63.6896 69.3831 60.0095 72.7459 54.1942" fill="white"/>
<path d="M63.8316 44.9707C63.3269 45.1401 62.8171 45.2479 62.2918 45.3197L63.3166 45.1812C61.9159 45.3505 60.51 45.3813 59.1145 45.6277C57.5026 45.91 55.9526 46.7158 54.8094 47.881C53.7588 48.9434 52.9297 50.2779 52.0594 51.4892C51.3076 52.5363 50.5712 53.5885 49.8708 54.6715C48.3362 57.0377 47.0334 59.5271 46.0446 62.1704C45.1331 64.6187 44.7366 67.1902 44.3813 69.7668C43.9951 72.6257 43.6088 75.5051 42.4914 78.1844L42.8827 77.2657C42.7128 77.6557 42.5326 78.0458 42.3317 78.4205C42.2339 78.6053 42.1257 78.7849 42.0176 78.9594C41.9455 79.0775 41.4048 79.8166 41.8476 79.2469C42.2905 78.6772 41.7858 79.3033 41.6829 79.406C41.5387 79.5548 41.3842 79.6883 41.2348 79.832C40.9568 80.104 42.0536 79.2828 41.3636 79.714C41.1679 79.8371 40.9619 79.9398 40.7508 80.0424L41.6726 79.6524C41.3018 79.8064 40.931 79.9193 40.5345 79.9911L41.5593 79.8525C41.1627 79.9039 40.7868 79.909 40.3903 79.8628L41.4151 80.0014C41.1524 79.9552 40.9104 79.8885 40.6632 79.8012C39.8702 79.5138 38.8917 79.6832 38.1502 79.9963C37.4086 80.3094 36.6877 80.8432 36.3015 81.572C35.9822 82.1777 35.8071 82.8295 35.7762 83.5173C35.7298 84.59 36.2757 85.4472 36.9091 86.2376C37.491 86.9716 38.0729 87.7004 38.6548 88.4344C39.726 89.7792 40.8538 91.0264 42.7591 91.0367C44.6645 91.047 45.9365 90.0769 46.9458 88.5987C47.5174 87.762 48.053 86.8946 48.604 86.0477C50.6536 82.8962 52.7031 79.7448 54.7527 76.5933C55.1956 75.9106 55.6436 75.228 56.1174 74.5659L56.2564 74.3759C56.4984 74.0526 56.4418 74.1244 56.0762 74.6018C56.2152 74.4786 56.3233 74.2938 56.4418 74.1501C56.7662 73.7652 57.1061 73.3956 57.4666 73.0466C58.0485 72.4768 58.6716 71.9636 59.2998 71.4503C59.717 71.1116 58.5171 72.0354 59.1608 71.553C59.3462 71.4144 59.5316 71.2758 59.717 71.1372C60.0569 70.8857 60.3967 70.6393 60.7366 70.393C63.4659 68.4169 66.2467 66.4921 68.8473 64.3467C71.6693 62.0164 74.2184 59.3115 76.0723 56.1446C77.0919 54.4046 76.5306 51.8485 74.687 50.8785C72.8435 49.9084 70.4901 50.4011 69.4035 52.2591C69.0739 52.8186 68.7289 53.3627 68.353 53.8913C68.1727 54.148 67.4775 54.9436 68.286 54.0094C68.044 54.2917 67.8174 54.5894 67.5754 54.8717C66.7102 55.8777 65.7678 56.8119 64.7842 57.6998C64.3259 58.1104 63.8573 58.5159 63.3784 58.906C63.1106 59.1267 62.8428 59.3423 62.575 59.5578C62.3279 59.7529 61.37 60.4715 62.3742 59.717C61.3185 60.5023 60.2628 61.2876 59.1917 62.0575C56.6838 63.8539 54.006 65.5734 51.8277 67.7702C49.5155 70.1004 47.847 73.0517 46.0755 75.7823C45.061 77.3426 44.0465 78.903 43.0321 80.4633C42.5274 81.2435 42.0176 82.0237 41.5129 82.8038C41.2812 83.158 41.0546 83.5122 40.8229 83.8663C40.7096 84.046 40.5911 84.2205 40.4778 84.4001C40.4109 84.5079 40.3388 84.6106 40.2718 84.7183C40.4984 84.3591 40.792 84.0665 41.1576 83.8458L42.0794 83.4557L41.9094 83.4968L42.9342 83.3582L42.754 83.3376L44.7057 83.8612C44.1753 83.6251 45.1692 84.4206 44.9683 84.0614C44.8962 83.9279 44.7624 83.8047 44.6697 83.6867C44.407 83.353 44.1392 83.0194 43.8766 82.6858C43.3719 82.0545 42.8724 81.418 42.3678 80.7867C41.1164 82.9322 39.865 85.0776 38.6085 87.2231C41.6468 88.3318 45.2979 86.987 47.3423 84.6208C49.1808 82.4959 50.2776 79.8577 50.9265 77.1476C51.4775 74.8379 51.7092 72.4717 52.0594 70.1261C52.4096 67.7804 52.9606 65.4091 53.8979 63.1713L53.5065 64.09C54.5055 61.77 55.8032 59.5989 57.2194 57.515C57.9197 56.4834 58.651 55.4671 59.3822 54.4559C59.5573 54.2096 59.7376 53.9683 59.9127 53.722C59.9899 53.6193 60.0671 53.4551 60.1701 53.3729C60.0826 53.4448 59.6088 54.0197 59.9693 53.645C60.0929 53.5167 60.2062 53.3781 60.3349 53.2498C60.4379 53.1522 60.8448 52.8186 60.3452 53.2087C59.8457 53.5988 60.2371 53.3062 60.3658 53.2344C60.5049 53.1574 60.6491 53.0906 60.7933 53.0239L59.8715 53.414C60.4122 53.1984 60.9683 53.0752 61.5451 52.9931L60.5203 53.1317C62.3021 52.911 64.1611 52.9777 65.876 52.3926C67.7865 51.7459 69.2438 49.7185 68.5744 47.6551C67.9616 45.7663 65.8708 44.2727 63.8213 44.9656L63.8316 44.9707Z" fill="white"/>
<path d="M62.215 48.3173C65.7425 46.1051 70.2279 45.4686 74.2343 46.6081C74.7699 46.7621 75.3415 46.9776 75.6144 47.4601C75.8307 47.8399 75.8101 48.307 75.7586 48.7433C75.3724 51.7613 73.5597 54.3841 71.8037 56.8735C70.2073 59.1319 68.5903 61.4159 66.4789 63.2021C65.1091 64.3621 63.5591 65.2911 62.0142 66.215C59.3775 67.7907 56.7409 69.3716 54.0991 70.9474C52.5285 67.5392 54.3154 63.5511 56.4577 60.4664C60.1757 55.1027 65.3305 50.4268 71.6492 48.7382C69.1825 54.2148 65.8919 59.3167 61.9215 63.8283" fill="white"/>
<path d="M64.1665 51.6433C64.8308 51.2326 65.5157 50.8785 66.2316 50.5705L65.3098 50.9606C66.556 50.4473 67.8485 50.0983 69.1823 49.9084L68.1575 50.047C69.4964 49.8776 70.8353 49.8673 72.1691 50.0367L71.1443 49.8981C72.0249 50.0213 72.921 50.1856 73.7501 50.5089L72.8283 50.1188C72.9931 50.1958 73.4462 50.5038 72.9158 50.0932C72.7304 49.9854 72.5862 49.8365 72.4781 49.6569C72.267 49.3489 72.2309 49.3233 72.3648 49.5799L71.9734 48.6612C72.0146 48.7792 72.0455 48.8973 72.061 49.0204L71.9219 47.999C71.9425 48.2557 71.9271 48.4969 71.9013 48.7535L72.0404 47.7321C71.9013 48.7381 71.6181 49.6928 71.2319 50.627L71.6232 49.7082C70.7272 51.7972 69.3934 53.645 68.0854 55.4928C67.7816 55.9188 67.4778 56.3448 67.1688 56.7708C66.9937 57.0069 66.7826 57.2379 66.6281 57.4894C67.2306 56.5039 66.7259 57.3611 66.5405 57.5921C65.835 58.4595 65.0832 59.291 64.2592 60.0506C64.0378 60.2559 63.8112 60.451 63.5743 60.646C63.4559 60.7435 63.3323 60.841 63.2087 60.9386C63.6825 60.5741 63.7546 60.5177 63.4301 60.7589C62.977 61.0669 62.5341 61.3851 62.0758 61.6828C61.0561 62.3347 60.0108 62.9455 58.9757 63.5665C56.7047 64.9267 54.4337 66.2817 52.1627 67.6419L57.4462 69.0226L57.3587 68.8275L57.7501 69.7463C57.5441 69.233 57.3999 68.7095 57.3123 68.1603L57.4514 69.1817C57.3638 68.499 57.3638 67.8215 57.4411 67.1389L57.302 68.1603C57.4462 67.0978 57.7552 66.0867 58.1672 65.0961L57.7758 66.0148C58.4865 64.3723 59.4494 62.8685 60.5103 61.4313C60.6287 61.2671 60.7626 61.1131 60.8759 60.9437C60.2167 61.8984 60.5927 61.303 60.7729 61.0823C61.0458 60.7384 61.3291 60.3996 61.6174 60.066C62.1685 59.4244 62.7452 58.7982 63.3426 58.1977C63.9399 57.5972 64.5064 57.0685 65.1244 56.5398C65.4591 56.2524 65.799 55.9804 66.1389 55.7083C66.453 55.4568 65.3252 56.3191 65.9998 55.8213C66.1903 55.6827 66.3809 55.5441 66.5714 55.4107C67.9464 54.456 69.4089 53.6399 70.9486 52.9829L70.0268 53.373C70.8971 53.0137 71.7829 52.7109 72.6892 52.4594C71.237 50.5757 69.7797 48.6919 68.3275 46.8031C67.107 49.5029 65.6908 52.1155 64.0893 54.6151C63.3065 55.8315 62.4826 57.0172 61.6174 58.1772C61.5041 58.3312 61.3909 58.48 61.2724 58.634C60.9119 59.1062 61.2003 58.7418 61.3857 58.4851C61.1643 58.7931 60.9119 59.0805 60.6751 59.3782C60.1961 59.9685 59.7018 60.5485 59.2023 61.1182C58.5225 61.8933 58.0693 62.7863 58.0693 63.8385C58.0693 64.783 58.4916 65.9122 59.2023 66.5589C60.6596 67.8934 63.2447 68.1808 64.666 66.5589C68.8476 61.7855 72.3802 56.468 74.9963 50.6886C75.6554 49.236 75.7224 47.7424 74.6924 46.413C73.7552 45.2017 72.1434 44.6217 70.6345 45.0323C66.1491 46.2591 62.1376 48.7535 58.7542 51.905C57.0188 53.5218 55.51 55.3337 54.0835 57.2225C52.657 59.1113 51.4366 61.1901 50.5508 63.4536C50.0101 64.8497 49.7114 66.3638 49.6548 67.8574C49.5878 69.6539 50.0565 71.281 50.7723 72.9029C51.1224 73.6933 52.2605 74.4838 53.0793 74.6737C54.0886 74.9046 55.1495 74.8277 56.0558 74.2836C59.228 72.3845 62.4414 70.5367 65.5724 68.576C67.2151 67.5444 68.8167 66.3946 70.2019 65.0293C71.5872 63.664 72.7098 62.1756 73.8324 60.6511C75.8872 57.859 77.9779 54.9949 79.0542 51.6638C79.8318 49.2565 80.079 46.3976 78.1273 44.4626C76.5154 42.8612 74.0024 42.5378 71.8498 42.3017C67.8794 41.8655 63.6516 42.9177 60.2682 45.0015C58.5482 46.0589 57.7346 48.4918 58.883 50.2677C60.0313 52.0436 62.3281 52.7827 64.1665 51.6484V51.6433Z" fill="white"/>
<path d="M45.5754 11.1462C46.1573 12.4961 46.1985 14.0052 46.2139 15.4731C46.3427 28.4075 45.1273 41.6807 39.5863 53.3781C38.5821 55.503 37.4337 57.5818 36.8364 59.8556C36.3832 61.5904 36.2081 63.51 35.0186 64.8548" fill="white"/>
<path d="M41.8475 12.1677C42.1101 12.8144 42.2698 13.4816 42.3676 14.1694L42.2286 13.148C42.4242 14.8315 42.3625 16.5561 42.3522 18.2499C42.3419 19.9437 42.3058 21.5759 42.2389 23.2389C42.105 26.6008 41.832 29.9525 41.3892 33.2887L41.5282 32.2673C40.6888 38.4317 39.2212 44.5088 36.8008 50.2523L37.1922 49.3335C36.1777 51.7202 34.9418 54.0043 33.9531 56.4013C33.5205 57.4483 33.1703 58.5108 32.918 59.6143C32.6965 60.5947 32.5008 61.575 32.1095 62.5092L32.5008 61.5904C32.4082 61.8008 32.3103 62.001 32.1919 62.2012C32.0322 62.4732 31.5173 63.0378 32.2794 62.1396C31.6048 62.9352 31.1465 63.7872 31.1465 64.8599C31.1465 65.8044 31.5688 66.9336 32.2794 67.5803C33.711 68.8942 36.3528 69.2227 37.7432 67.5803C38.974 66.1277 39.7155 64.4955 40.1481 62.6477C40.4828 61.2055 40.833 59.8196 41.3995 58.4441L41.0081 59.3628C41.6518 57.8487 42.4191 56.3961 43.1092 54.9025C43.861 53.2754 44.5562 51.6227 45.1845 49.9443C46.2865 46.9981 47.1465 43.9699 47.8211 40.9005C49.2115 34.536 49.8449 27.9969 50.02 21.4938C50.0715 19.7179 50.0869 17.9419 50.0715 16.166C50.0612 14.154 50.0612 12.0085 49.2887 10.1197C48.8922 9.15476 48.4545 8.36946 47.5121 7.82026C46.683 7.33778 45.4625 7.13248 44.5356 7.43017C43.6087 7.72787 42.6972 8.30786 42.2286 9.20095C41.7599 10.094 41.4561 11.2284 41.8372 12.1677H41.8475Z" fill="white"/>
<path d="M31.0696 79.714C30.0294 75.9774 29.4886 72.0971 29.4629 68.2168C32.1613 71.5582 34.216 75.3615 36.2501 79.1392C34.7104 74.5146 34.2109 69.5462 34.8082 64.706C35.524 58.8804 37.7744 53.3628 39.9991 47.9324" fill="white"/>
<path d="M34.7926 78.6874C34.2674 76.7729 33.8657 74.8328 33.5928 72.8721L33.7318 73.8935C33.4795 72.0098 33.3456 70.1158 33.325 68.2167L26.7334 70.9371C26.8313 71.0602 26.9291 71.1783 27.027 71.3015C26.6613 70.8293 26.6047 70.7574 26.8519 71.0808C26.9909 71.2707 27.13 71.4555 27.269 71.6454C27.5883 72.0868 27.9024 72.5333 28.2062 72.985C28.7727 73.8268 29.3134 74.6839 29.8335 75.5565C30.915 77.3683 31.9191 79.2264 32.9182 81.0844C33.8297 82.7731 36.0389 83.3736 37.7434 82.6602C39.4479 81.9467 40.5809 79.9552 39.9784 78.1177C39.3295 76.1416 38.8609 74.1142 38.5828 72.0509L38.7218 73.0723C38.3408 70.1312 38.3459 67.1645 38.7373 64.2286L38.5982 65.25C39.3964 59.5681 41.5645 54.2301 43.7273 48.9537C44.0826 48.0914 43.7891 46.7518 43.3359 45.987C42.8828 45.2222 41.9507 44.4267 41.0289 44.2162C40.0402 43.9904 38.933 44.0417 38.0524 44.6063C37.1718 45.1709 36.6774 45.9254 36.2757 46.9058C34.6588 50.8528 33.0366 54.8153 31.9861 58.9573C30.8789 63.315 30.4103 67.878 30.9047 72.3588C31.1982 75.0124 31.6925 77.6198 32.5268 80.1605L39.587 77.1938C37.3829 73.1082 35.1119 69.1252 32.1972 65.4913C31.8264 65.0293 31.054 64.6546 30.4927 64.5007C29.6533 64.2697 28.7727 64.3621 27.9796 64.6957C26.5892 65.2808 25.5902 66.6718 25.6056 68.2116C25.6468 72.4255 26.2339 76.6652 27.3514 80.7303C27.887 82.6704 30.1167 84.0562 32.1045 83.4198C34.0923 82.7833 35.3746 80.7662 34.803 78.6823L34.7926 78.6874Z" fill="white"/>
<path d="M18.4275 85.3499C16.0792 86.5355 13.1439 88.6759 9.97173 92.1969C8.43199 93.9061 0.789884 102.39 2.30903 114.047C3.53465 123.476 9.99748 129.163 11.6763 130.595C24.8749 141.871 43.1201 135.609 44.6702 135.05C47.8475 133.9 55.7213 131.062 60.6341 122.957C63.9402 117.501 64.7229 106.846 60.2067 100.892C57.0808 96.7701 52.6264 94.7119 49.4645 90.1182C48.965 89.3893 48.4243 88.0599 48.414 86.4021C48.3934 83.8306 49.8301 81.8186 50.8755 80.5816C55.2218 75.4386 63.3068 71.1734 67.3905 68.1091C75.7896 61.8165 81.6241 49.8573 78.4004 45.1608C75.6145 41.1009 66.1751 41.6603 59.8822 44.3293C43.9028 51.1148 45.8546 79.36 41.3641 79.0829C39.2579 78.9545 38.7789 73.2162 39.3609 68.1091C39.7831 64.4033 39.5823 64.8961 42.2962 57.8232C43.2643 55.2979 44.629 50.5502 47.348 41.0496C48.2028 38.0623 50.5356 29.9219 51.03 24.0962C51.4471 19.1381 52.0136 12.4399 47.6518 7.10188C43.2179 1.67149 36.4925 1.09149 35.7921 1.04016C27.4085 0.444771 21.3216 6.63481 19.3699 8.61603C6.36182 21.843 10.2241 44.6578 11.769 53.7735C12.9328 60.6359 14.8021 70.0698 22.4185 82.6295" stroke="#231815" stroke-width="2" stroke-miterlimit="10"/>
<path d="M42.0437 112.199C44.5806 112.199 46.6372 110.749 46.6372 108.96C46.6372 107.172 44.5806 105.722 42.0437 105.722C39.5068 105.722 37.4502 107.172 37.4502 108.96C37.4502 110.749 39.5068 112.199 42.0437 112.199Z" fill="#231815" stroke="#231815" stroke-width="2" stroke-miterlimit="10"/>
<path d="M43.4101 111.612C44.7262 111.516 45.7547 110.915 45.7074 110.271C45.66 109.626 44.5546 109.181 43.2385 109.277C41.9224 109.374 40.8939 109.974 40.9413 110.619C40.9886 111.263 42.094 111.708 43.4101 111.612Z" fill="white"/>
<path d="M1.63386 173.576C1.27853 169.28 1.14464 160.528 5.52185 150.869C8.82793 143.575 13.3648 138.72 16.3413 135.999" stroke="#231815" stroke-width="2" stroke-miterlimit="10"/>
<path d="M42.0433 112.199L40.5859 119.487" stroke="#231815" stroke-width="2" stroke-miterlimit="10"/>
<path d="M62.5393 170.429C62.7092 166.452 62.4827 160.836 60.67 154.446C58.0334 145.156 53.3008 138.689 50.2471 135.137" stroke="#231815" stroke-width="2" stroke-miterlimit="10"/>
<path d="M35.5653 148.569H37.965C39.0619 148.569 40.0146 149.308 40.2875 150.366L44.2064 165.543C44.4124 166.334 44.1961 167.175 43.6348 167.771L39.3554 172.334C38.6602 173.078 37.5634 173.299 36.6313 172.888L30.8791 170.347C29.8389 169.891 29.2673 168.767 29.5093 167.658L33.217 150.458C33.4539 149.355 34.4324 148.569 35.5601 148.569H35.5653Z" fill="#2C50A2"/>
<path d="M34.5046 150.109C35.8075 150.638 37.1721 150.104 37.9137 149.811C38.3926 149.627 39.4071 149.16 40.7306 147.743C41.9922 146.388 44.2014 144.022 43.6916 142.282C42.8007 139.223 33.4953 137.909 31.5436 141.101C30.663 142.543 31.4045 144.715 31.9864 146.419C32.5117 147.943 33.0473 149.519 34.5046 150.109Z" fill="#2C50A2"/>
<path d="M32.2125 97.6067C32.2743 97.5708 32.3361 97.54 32.3928 97.5041C32.5215 97.4219 32.1662 97.5708 32.3155 97.54C32.4288 97.5143 32.573 97.4938 32.676 97.4476C32.6142 97.4733 32.4031 97.4681 32.5833 97.4681C32.6554 97.4681 32.7224 97.4681 32.7945 97.4681C32.8511 97.4681 32.9077 97.4784 32.9644 97.4784C33.124 97.4835 32.6812 97.4219 32.918 97.4784C33.0416 97.5092 33.1652 97.5349 33.2888 97.5759C33.33 97.5913 33.5051 97.6683 33.3352 97.5862C33.1498 97.4989 33.3764 97.6067 33.4124 97.6272C33.5308 97.6888 33.6441 97.7556 33.7523 97.8274C33.8038 97.8582 33.8501 97.8942 33.9016 97.9301C34.0407 98.0225 33.6699 97.7299 33.8862 97.9198C34.0767 98.0892 34.2621 98.2586 34.4372 98.4485C34.5299 98.546 34.6174 98.6487 34.705 98.7513C34.7513 98.8078 34.8028 98.8694 34.8492 98.9258C34.8698 98.9515 34.9985 99.1157 34.8904 98.972C34.7719 98.818 34.9315 99.0233 34.9521 99.0593C34.9882 99.1055 35.0243 99.1568 35.0603 99.203C35.153 99.3262 35.2457 99.4494 35.3332 99.5777C35.5238 99.8394 35.7143 100.106 35.8997 100.373C36.2859 100.922 37.0429 101.23 37.6609 100.835C38.2067 100.481 38.5363 99.6701 38.1243 99.0798C37.2798 97.8736 36.4404 96.6212 35.2354 95.7384C34.0304 94.8556 32.2486 94.5784 30.9097 95.3945C30.3329 95.7435 30.0651 96.5596 30.4462 97.1499C30.8273 97.7402 31.5946 97.9865 32.2074 97.6118L32.2125 97.6067Z" fill="#231815"/>
<path d="M47.5433 101.461C47.6514 101.374 47.6257 101.395 47.4712 101.513C47.5124 101.482 47.5588 101.451 47.6 101.42C47.6875 101.359 47.775 101.297 47.8677 101.241C48.048 101.128 48.2385 101.025 48.4342 100.933C48.4805 100.912 48.532 100.887 48.5835 100.866C48.3981 100.943 48.3724 100.953 48.5011 100.902C48.6041 100.866 48.702 100.83 48.805 100.794C48.9955 100.733 49.1912 100.681 49.3869 100.64C49.4796 100.62 49.5723 100.604 49.665 100.589C49.804 100.568 49.7731 100.573 49.562 100.599C49.6135 100.594 49.6701 100.589 49.7216 100.584C49.9379 100.563 50.149 100.558 50.3653 100.558C50.4735 100.558 50.5816 100.563 50.6898 100.573C50.7413 100.573 50.7979 100.584 50.8494 100.589C50.9884 100.604 50.9575 100.599 50.7464 100.573C50.8288 100.614 50.973 100.609 51.0657 100.63C51.1687 100.65 51.2768 100.676 51.3798 100.707C52.0287 100.881 52.8063 100.491 52.9659 99.8087C53.1255 99.126 52.7651 98.4177 52.0647 98.2278C50.9627 97.9352 49.8195 97.925 48.7071 98.1611C47.5948 98.3972 46.6009 98.931 45.7255 99.6393C45.2002 100.065 45.2517 101.02 45.7255 101.456C46.2816 101.964 46.9871 101.908 47.5485 101.456L47.5433 101.461Z" fill="#231815"/>
<path d="M64.578 100.543C64.3463 99.3158 69.3775 96.6468 74.7641 96.4312C75.7168 96.3953 84.1261 96.0566 86.4023 101.025C87.4271 103.253 87.1851 106.496 85.6762 107.307C83.8532 108.293 81.7264 104.905 76.2214 102.714C69.7174 100.132 64.8046 101.728 64.5832 100.537L64.578 100.543Z" fill="#7FC8F0"/>
<path d="M64.8512 95.8053C64.3311 95.2509 66.0562 92.2534 68.7547 90.4057C69.2336 90.0772 73.4512 87.1926 76.232 89.0096C77.4833 89.8257 78.4103 91.5708 77.9005 92.4793C77.2825 93.5725 75.0888 92.5152 71.5458 93.1671C67.3591 93.937 65.3559 96.3442 64.8512 95.8053Z" fill="#7FC8F0"/>
<path d="M25.6518 96.8369C25.8269 95.8771 22.0161 93.7983 17.9376 93.629C17.2167 93.5982 10.8465 93.3364 9.1214 97.2167C8.34895 98.9567 8.52917 101.487 9.6724 102.124C11.0525 102.893 12.6644 100.245 16.8356 98.5358C21.7638 96.5187 25.4819 97.7659 25.6518 96.8369Z" fill="#7FC8F0"/>
<path d="M25.4465 93.1413C25.8379 92.705 24.535 90.3696 22.4906 88.9222C22.1301 88.6656 18.9373 86.4123 16.826 87.834C15.8784 88.4705 15.1781 89.8358 15.5643 90.539C16.0329 91.3961 17.6963 90.5698 20.3792 91.0779C23.5514 91.6784 25.0706 93.557 25.4465 93.1361V93.1413Z" fill="#7FC8F0"/>
</svg>
