<svg width="22" height="19" viewBox="0 0 22 19" fill="none" xmlns="http://www.w3.org/2000/svg">
<path d="M9.75067 16.6472L9.74993 16.6466C6.94969 14.3027 4.66772 12.3917 3.07979 10.5997C1.49601 8.81228 0.666504 7.21223 0.666504 5.5C0.666504 2.73307 3.02588 0.5 6.12484 0.5C7.87278 0.5 9.54787 1.2535 10.6323 2.42903L10.9998 2.8274L11.3673 2.42903C12.4518 1.2535 14.1269 0.5 15.8748 0.5C18.9738 0.5 21.3332 2.73307 21.3332 5.5C21.3332 7.21224 20.5037 8.81231 18.9198 10.601C17.3345 12.3913 15.0576 14.3013 12.2639 16.6447L12.2504 16.656L12.2493 16.6569L11.0011 17.6979L9.75067 16.6472Z" stroke="#234BD9"/>
</svg>
