<svg width="18" height="23" viewBox="0 0 18 23" fill="none" xmlns="http://www.w3.org/2000/svg">
<path d="M1.9585 22.8335C1.51162 22.8335 1.12907 22.6744 0.81084 22.3562C0.492611 22.0379 0.333496 21.6554 0.333496 21.2085V9.45433C0.333496 9.00745 0.492611 8.6249 0.81084 8.30667C1.12907 7.98844 1.51162 7.82933 1.9585 7.82933H3.85433V5.22933C3.85433 3.80565 4.35633 2.59209 5.36032 1.58865C6.36432 0.585215 7.57856 0.0834961 9.00303 0.0834961C10.4275 0.0834961 11.6408 0.585215 12.6429 1.58865C13.645 2.59209 14.146 3.80565 14.146 5.22933V7.82933H16.0418C16.4887 7.82933 16.8713 7.98844 17.1895 8.30667C17.5077 8.6249 17.6668 9.00745 17.6668 9.45433V21.2085C17.6668 21.6554 17.5077 22.0379 17.1895 22.3562C16.8713 22.6744 16.4887 22.8335 16.0418 22.8335H1.9585ZM1.9585 21.2085H16.0418V9.45433H1.9585V21.2085ZM9.00471 17.4168C9.57946 17.4168 10.07 17.2179 10.4762 16.8202C10.8825 16.4224 11.0856 15.9442 11.0856 15.3856C11.0856 14.8439 10.8809 14.3519 10.4717 13.9095C10.0624 13.4672 9.57036 13.246 8.99561 13.246C8.42087 13.246 7.93037 13.4672 7.52412 13.9095C7.11787 14.3519 6.91475 14.8484 6.91475 15.3991C6.91475 15.9498 7.11939 16.4238 7.52867 16.821C7.93795 17.2182 8.42997 17.4168 9.00471 17.4168ZM5.47933 7.82933H12.521V5.22933C12.521 4.25131 12.179 3.42001 11.495 2.73541C10.811 2.0508 9.98047 1.7085 9.00336 1.7085C8.02623 1.7085 7.19461 2.0508 6.5085 2.73541C5.82238 3.42001 5.47933 4.25131 5.47933 5.22933V7.82933Z" fill="black"/>
</svg>
