<svg width="32" height="32" viewBox="0 0 32 32" fill="none" xmlns="http://www.w3.org/2000/svg">
<path d="M15.8333 0C7.09333 0 0 7.09333 0 15.8333C0 24.5733 7.09333 31.6667 15.8333 31.6667C24.5733 31.6667 31.6667 24.5733 31.6667 15.8333C31.6667 7.09333 24.5733 0 15.8333 0ZM15.8333 4.75C18.4617 4.75 20.5833 6.87167 20.5833 9.5C20.5833 12.1283 18.4617 14.25 15.8333 14.25C13.205 14.25 11.0833 12.1283 11.0833 9.5C11.0833 6.87167 13.205 4.75 15.8333 4.75ZM15.8333 27.2333C11.875 27.2333 8.37583 25.2067 6.33333 22.135C6.38083 18.9842 12.6667 17.2583 15.8333 17.2583C18.9842 17.2583 25.2858 18.9842 25.3333 22.135C23.2908 25.2067 19.7917 27.2333 15.8333 27.2333Z" fill="#234BD9"/>
</svg>
