<svg width="32" height="32" viewBox="0 0 32 32" fill="none" xmlns="http://www.w3.org/2000/svg">
<path d="M15.9998 0.166504C7.25984 0.166504 0.166504 7.25984 0.166504 15.9998C0.166504 24.7398 7.25984 31.8332 15.9998 31.8332C24.7398 31.8332 31.8332 24.7398 31.8332 15.9998C31.8332 7.25984 24.7398 0.166504 15.9998 0.166504ZM15.9998 4.9165C18.6282 4.9165 20.7498 7.03817 20.7498 9.6665C20.7498 12.2948 18.6282 14.4165 15.9998 14.4165C13.3715 14.4165 11.2498 12.2948 11.2498 9.6665C11.2498 7.03817 13.3715 4.9165 15.9998 4.9165ZM15.9998 27.3998C12.0415 27.3998 8.54234 25.3732 6.49984 22.3015C6.54734 19.1507 12.8332 17.4248 15.9998 17.4248C19.1507 17.4248 25.4523 19.1507 25.4998 22.3015C23.4573 25.3732 19.9582 27.3998 15.9998 27.3998Z" fill="#D9D9D9"/>
</svg>
