<svg width="29" height="32" viewBox="0 0 29 32" fill="none" xmlns="http://www.w3.org/2000/svg">
<path d="M23.25 3.16667V3.66667H23.75H25.3333C26.7989 3.66667 28 4.86781 28 6.33333V28.5C28 29.9655 26.7989 31.1667 25.3333 31.1667H3.16667C1.687 31.1667 0.500098 29.9673 0.5 28.5002C0.5 28.5001 0.5 28.5001 0.5 28.5L0.515833 6.33369V6.33333C0.515833 4.86289 1.6902 3.66667 3.16667 3.66667H4.75H5.25V3.16667V0.5H7.41667V3.16667V3.66667H7.91667H20.5833H21.0833V3.16667V0.5H23.25V3.16667ZM25.3333 29H25.8333V28.5V11.0833V10.5833H25.3333H3.16667H2.66667V11.0833V28.5V29H3.16667H25.3333ZM6.83333 16.9167V14.75H21.6667V16.9167H6.83333ZM6.83333 21.0833H16.9167V23.25H6.83333V21.0833Z" stroke="black"/>
</svg>
