<svg width="72" height="157" viewBox="0 0 72 157" fill="none" xmlns="http://www.w3.org/2000/svg">
<path d="M22.7787 86.7585C18.6167 88.0101 15.3176 91.7417 14.5839 96.0117C13.8503 100.282 15.7236 104.897 19.2304 107.455C18.0215 108.072 16.365 107.584 15.6867 106.411C17.9754 106.898 19.738 108.693 21.8882 109.613C25.5103 111.159 29.6631 110.032 33.4328 108.891C32.1132 110.013 30.7935 111.141 29.4693 112.263C31.2411 112.089 33.1744 111.702 34.2819 110.308C35.6615 108.569 35.1816 106.052 34.5956 103.912C33.3775 99.4902 31.984 95.1144 30.5951 90.7432C29.6169 87.6604 28.6341 84.5821 27.6559 81.4993C31.3149 83.2938 34.591 85.9211 36.935 89.2432C37.987 90.734 38.8545 92.3583 40.0542 93.7387C41.1939 95.05 42.6381 96.1359 43.4502 97.6773C44.8575 100.351 43.9301 103.779 41.9598 106.07C39.9942 108.362 37.1842 109.746 34.4064 110.943C38.693 111.021 42.7812 107.681 43.5563 103.48C44.0455 100.825 43.3349 98.0731 43.6855 95.3951C45.3836 95.846 46.108 97.8936 46.0665 99.6467C46.0249 101.703 45.2497 103.806 43.6855 105.145C42.1213 106.484 39.7081 106.894 37.9317 105.845" fill="white"/>
<path d="M19.7103 75.6696C16.0513 76.8015 13.149 78.5407 10.2974 81.0622C8.94085 82.2586 7.86575 83.7908 6.79987 85.2264C6.2877 85.9166 5.84012 86.6574 5.48022 87.4396C4.74195 89.0547 3.90678 90.7755 3.53303 92.5516C3.24695 93.9136 3.09469 95.317 2.94703 96.6974C2.89628 97.1483 2.87782 97.6038 2.88705 98.0593C2.89628 98.5149 2.93319 98.9658 2.98856 99.4213C3.15929 100.829 3.28848 102.27 3.61609 103.654C4.04059 105.44 4.85269 107.184 5.62325 108.817C6.45381 110.575 7.755 112.107 8.96853 113.598C10.1821 115.089 11.8478 116.244 13.3981 117.394V97.5302L13.2643 97.5946L16.019 96.4351C15.7837 96.5271 15.5483 96.5869 15.2992 96.6238L18.3676 96.2142C18.1138 96.2372 17.8739 96.228 17.6201 96.1958L20.6885 96.6053C20.4394 96.5593 20.2041 96.4903 19.9687 96.3937L22.7234 97.5532C22.4927 97.4428 22.285 97.3185 22.0866 97.1667L24.4214 98.9658C24.2691 98.8324 24.1353 98.6943 24.0061 98.5379L25.8103 100.866C25.7503 100.788 25.6949 100.705 25.6442 100.618C21.3022 106.25 16.9603 111.882 12.6183 117.514C13.0382 117.61 13.4351 117.739 13.8365 117.9L11.0818 116.741C12.3876 117.306 13.532 118.162 14.7547 118.876C16.1805 119.708 17.7539 120.339 19.2951 120.895C20.8362 121.452 22.788 121.613 24.3937 121.788C26.8854 122.06 29.4509 121.613 31.8918 121.172C33.456 120.891 34.9832 120.445 36.5013 119.984C32.7592 113.575 29.0171 107.165 25.2796 100.76C23.96 101.883 22.6403 103.01 21.3161 104.133L19.5119 106.461L18.3491 109.208L17.9385 112.268C17.8785 113.851 18.2107 115.328 18.9305 116.699C19.2028 117.675 19.7011 118.521 20.4117 119.239C20.9239 120.104 21.616 120.79 22.4788 121.3C23.1987 122.014 24.0477 122.506 25.0259 122.777C26.4009 123.5 27.882 123.826 29.4693 123.767C30.9412 123.619 32.4224 123.445 33.8805 123.173C34.3788 123.081 34.8725 122.952 35.3478 122.777C36.5059 122.354 38.0055 121.839 39.1314 121.107C40.0911 120.486 41.0509 119.713 41.923 118.968C42.4813 118.489 42.9012 117.84 43.3395 117.274C43.7317 116.768 44.2439 116.202 44.5761 115.609C44.6453 115.484 44.7053 115.36 44.7653 115.231C45.1852 114.343 45.6651 113.253 45.9927 112.328C46.4864 110.938 46.5694 109.397 46.694 107.952C46.7356 107.455 46.7171 106.954 46.6617 106.457C46.4956 104.961 46.3341 103.447 46.0065 101.975C45.4482 99.4765 44.6361 97.0149 43.884 94.567C43.1319 92.1191 42.3106 89.5424 41.5123 87.0347C40.5987 84.1681 39.6897 81.3015 38.7761 78.4395L21.8329 91.4289C23.4109 92.2111 24.9059 93.1314 26.304 94.1989L23.9692 92.3998C25.5565 93.6329 26.9869 95.0363 28.2235 96.6191L26.4193 94.2909C27.5175 95.7219 28.385 97.3047 29.4601 98.7495C30.5352 100.194 31.5595 101.57 32.7961 102.817C33.4098 103.438 34.0327 104.041 34.5818 104.722L32.7777 102.394C33.1514 102.877 33.4652 103.383 33.7097 103.944L32.547 101.197C32.7361 101.676 32.8653 102.164 32.9438 102.674L32.5331 99.6146C32.6116 100.245 32.6023 100.866 32.5239 101.492L32.9346 98.4321C32.8238 99.1867 32.6162 99.9091 32.3209 100.613L33.4836 97.8661C33.1745 98.5701 32.7915 99.2281 32.3301 99.84L34.1342 97.5118C33.4883 98.3446 32.7223 99.067 31.8918 99.7112L34.2265 97.9121C32.5054 99.2097 30.5583 100.139 28.588 100.995L26.2532 102.794C25.1274 103.834 24.3337 105.072 23.8677 106.498C23.3463 107.395 23.0833 108.362 23.0787 109.401C22.7372 110.929 22.8018 112.461 23.2863 113.989L24.4491 116.736L26.2532 119.064C27.296 120.187 28.5373 120.978 29.9676 121.443C31.3427 122.165 32.8238 122.492 34.4111 122.432C38.0194 122.46 41.5861 121.448 44.7192 119.69C45.0975 119.478 45.4574 119.239 45.8035 118.981C46.8463 118.213 47.926 117.44 48.8858 116.561C50.1777 115.374 51.2528 113.902 52.2126 112.457C53.1723 111.012 53.8552 109.259 54.3997 107.616C54.9949 105.822 55.1657 103.862 55.2579 101.989C55.3641 99.7848 54.9626 97.5854 55.2256 95.3814C50.3577 99.0808 45.4897 102.776 40.6218 106.475C40.7187 106.503 40.811 106.53 40.9032 106.567L38.1486 105.408C38.3747 105.504 38.5731 105.619 38.7715 105.762L36.4367 103.963C36.6259 104.115 36.7874 104.28 36.9443 104.464L35.1401 102.136C35.3524 102.417 35.5231 102.707 35.6661 103.029L34.5034 100.282C34.7018 100.765 34.8264 101.257 34.9002 101.773L34.4895 98.7127C34.5634 99.3753 34.5403 100.029 34.4526 100.687L34.8633 97.6268C34.7525 98.3308 34.568 99.0072 34.2957 99.6698L35.4585 96.9228C35.2186 97.4612 34.9325 97.9627 34.5772 98.4321L36.3813 96.1038C36.0537 96.5179 35.6846 96.8814 35.2693 97.2081L37.6041 95.409C37.2257 95.6805 36.8335 95.9014 36.4044 96.0854L39.1591 94.9259C38.7253 95.0961 38.287 95.2112 37.8302 95.2802L40.8986 94.8707C40.4418 94.9259 39.9942 94.9259 39.5374 94.8707L42.6059 95.2802C42.209 95.2158 41.8399 95.1145 41.4662 94.9627L44.2208 96.1222C44.0639 96.0486 43.9163 95.975 43.764 95.8922C42.4398 95.0501 41.0094 94.5946 39.4775 94.5256C37.9456 94.1851 36.409 94.2495 34.8771 94.7326C33.3775 95.0869 32.0671 95.7771 30.9551 96.7894C29.7 97.5992 28.708 98.6759 27.9835 100.015L26.8208 102.762C26.2717 104.8 26.2717 106.839 26.8208 108.877C27.739 111.707 29.4647 114.26 32.1225 115.751C33.3268 116.428 34.6326 117.017 35.9753 117.362C36.6259 117.527 37.378 117.583 38.0055 117.665C38.6331 117.748 39.3713 117.891 40.045 117.914C43.0765 118.01 45.3744 117.132 48.0506 115.944C48.4243 115.779 48.775 115.599 49.1119 115.369C50.1639 114.656 51.442 113.768 52.3602 112.77C53.2785 111.771 54.0813 110.727 54.8057 109.613C55.3041 108.854 55.6132 107.989 55.9639 107.156C56.3146 106.323 56.716 105.495 56.9421 104.612C57.2789 103.277 57.4035 101.851 57.5512 100.507C57.745 98.7403 57.4312 96.9044 57.0759 95.1882C57.0021 94.8339 56.8867 94.4934 56.7575 94.1575C56.31 93.021 55.8439 91.5808 55.0688 90.5179C53.3431 88.1436 52.8632 87.5638 50.4223 85.889C49.3287 85.139 48.0229 84.6558 46.7632 84.2831C44.7192 83.7356 42.6751 83.7356 40.631 84.2831C39.1314 84.6374 37.821 85.3276 36.709 86.3399C35.4539 87.1497 34.4618 88.2264 33.7374 89.5654C32.6946 91.3599 32.1686 93.297 32.164 95.3722C31.8595 97.9213 32.427 100.484 32.104 103.033L32.5147 99.9735C32.4039 100.705 32.2194 101.404 31.9379 102.09L33.1007 99.3431C32.7823 100.089 32.3716 100.779 31.8779 101.423L33.682 99.0946C33.1745 99.7342 32.6023 100.3 31.9656 100.806L34.3004 99.0072C33.6082 99.5318 32.8653 99.9689 32.0671 100.309L34.8218 99.1498C34.1204 99.4351 33.396 99.633 32.6485 99.748L35.7169 99.3385C35.2878 99.3937 34.8587 99.4213 34.4249 99.4167C36.3675 106.562 38.3055 113.708 40.248 120.854C41.8122 120.178 43.3718 119.455 44.8068 118.53C46.2418 117.606 47.7045 116.487 49.015 115.319C50.3254 114.15 51.3728 112.696 52.3741 111.306C53.3754 109.917 53.9752 108.233 54.6166 106.641C55.2579 105.049 55.4056 103.217 55.6086 101.483C55.6501 101.11 55.6824 100.742 55.6732 100.369C55.6455 99.0118 55.401 97.6268 55.161 96.2971C55.0964 95.9336 54.9949 95.5793 54.8703 95.2296C54.4366 94.0332 53.9291 92.6713 53.2415 91.5301C52.5171 90.3292 51.5758 89.2203 50.6761 88.1574C50.3761 87.8031 50.0485 87.4672 49.7209 87.1359C49.0242 86.4319 48.3228 85.7417 47.7138 84.9595L49.5179 87.2878C48.5951 86.0776 47.843 84.7525 46.9709 83.5055C45.6466 81.6144 44.2116 79.7279 42.5597 78.0944C40.9078 76.461 39.0622 75.0852 37.2073 73.76C36.0307 72.9226 34.7848 72.191 33.4929 71.5468C32.5747 71.1603 31.6564 70.7738 30.7382 70.3873L27.6698 69.9778L24.6014 70.3873C23.1018 70.7416 21.7913 71.4318 20.6793 72.4441C19.8118 72.9548 19.1243 73.645 18.6122 74.5054C17.897 75.2232 17.4032 76.0699 17.131 77.0453C16.6096 77.9426 16.3466 78.9089 16.342 79.9487C16.0005 81.4764 16.0651 83.0086 16.5496 84.5362C17.8831 88.728 19.2258 92.9151 20.5501 97.1115C21.2053 99.1913 21.8513 101.276 22.4696 103.369C23.0372 105.293 23.7016 107.239 23.9877 109.231L23.577 106.171C23.6693 106.875 23.697 107.57 23.6047 108.274L24.0154 105.214C23.9508 105.61 23.8539 105.978 23.7016 106.351L24.8644 103.604C24.7213 103.921 24.5506 104.207 24.343 104.483L26.1471 102.154C25.9349 102.408 25.7041 102.633 25.4458 102.835L27.7805 101.036C27.4252 101.294 27.0469 101.501 26.6408 101.671L29.3955 100.512C28.6526 100.802 27.882 100.963 27.0976 101.073L30.1661 100.664C29.9446 100.691 29.7185 100.719 29.497 100.742C32.2147 107.29 34.9371 113.833 37.6549 120.38C38.9745 119.257 40.2942 118.13 41.6184 117.007L43.4226 114.679C44.267 113.359 44.7238 111.932 44.793 110.405C45.0698 109.383 45.0698 108.366 44.793 107.345C44.7238 105.812 44.267 104.386 43.4226 103.07L41.6184 100.742L39.2837 98.9428C37.9594 98.1008 36.529 97.6452 34.9971 97.5762C33.4652 97.2357 31.9287 97.3001 30.3968 97.7833C28.5511 98.34 26.687 98.8692 24.7721 99.1268L27.8405 98.7173C26.7054 98.86 25.5657 98.8968 24.426 98.7633L27.4944 99.1729C26.627 99.0532 25.7964 98.8416 24.9889 98.5057L27.7436 99.6652C26.6316 99.1775 25.6395 98.4919 24.6152 97.8523C24.1215 97.544 23.6185 97.2449 23.0925 97.0011C21.9759 96.4765 20.8223 95.9842 19.6642 95.5609C19.3781 95.455 19.0828 95.3722 18.7875 95.3078L15.7191 94.8983L12.6506 95.3078C11.7324 95.6943 10.8142 96.0808 9.89598 96.4673C8.55326 97.1897 7.47354 98.179 6.66144 99.4305C5.94625 100.148 5.45253 100.995 5.18029 101.97C4.65889 102.868 4.39588 103.834 4.39127 104.874C4.11442 105.895 4.11442 106.912 4.39127 107.934C4.46048 109.466 4.91729 110.892 5.76168 112.208C5.81244 112.296 5.87242 112.374 5.92779 112.457C6.43074 113.202 7.21515 114.242 7.82422 114.9C8.58094 115.719 9.58683 116.363 10.482 117.012C10.6435 117.132 10.805 117.242 10.9849 117.339C11.8201 117.79 12.9921 118.222 13.878 118.563C13.9934 118.609 14.1087 118.655 14.2333 118.691C14.3302 118.719 14.4271 118.737 14.524 118.76C15.3407 118.945 16.9049 119.124 17.7401 119.193C17.9431 119.211 18.1369 119.216 18.3399 119.207C19.1428 119.175 20.767 118.931 21.556 118.779C21.6529 118.76 21.7498 118.747 21.8467 118.719C21.9436 118.691 22.0359 118.659 22.1328 118.627C23.0695 118.31 24.2045 117.794 25.0951 117.375C26.83 116.354 28.2096 114.978 29.234 113.248C30.2768 111.454 30.8028 109.517 30.8074 107.441C30.8028 105.366 30.2768 103.429 29.234 101.635C28.2096 99.9045 26.83 98.5287 25.0951 97.5072C25.0028 97.4382 24.9105 97.3692 24.8228 97.3001L27.1576 99.0992C26.3963 98.4965 25.718 97.8063 25.1228 97.0379L26.9269 99.3661C26.3086 98.5425 25.7964 97.659 25.3858 96.7112L26.5485 99.4581C26.1333 98.4551 25.8472 97.4106 25.6949 96.3339L26.1056 99.3937C25.9764 98.3722 25.9764 97.3508 26.1056 96.3339L25.6949 99.3937C25.8333 98.4551 26.0825 97.544 26.4424 96.6652L25.2796 99.4121C25.6949 98.4367 26.2255 97.5302 26.8669 96.6836L25.0628 99.0118C25.718 98.179 26.4609 97.429 27.296 96.7802L24.9613 98.5793C25.7595 97.9719 26.6178 97.4658 27.5406 97.0701L24.7859 98.2296C25.1458 98.0824 25.5104 97.9489 25.8841 97.8339C28.7126 96.9596 31.2642 95.1283 32.7777 92.547C33.6221 91.2265 34.0789 89.8001 34.1481 88.2724C34.4895 86.7448 34.4249 85.2126 33.9404 83.685C33.5529 82.7693 33.1653 81.8537 32.7777 80.938C31.7533 79.2079 30.3737 77.8322 28.6388 76.8107C27.7205 76.4242 26.8023 76.0377 25.8841 75.6512C23.84 75.1036 21.7959 75.1036 19.7519 75.6512L19.7103 75.6696Z" fill="white"/>
<path d="M23.2729 96.4954C24.8601 96.5552 26.3413 96.2239 27.7163 95.5061C29.1467 95.0414 30.3833 94.25 31.4307 93.1273C32.5566 92.0874 33.3502 90.8496 33.8163 89.4232C34.5407 88.0521 34.8683 86.5751 34.8083 84.9922L34.3976 81.9324C33.8486 79.9814 32.8611 78.2928 31.4307 76.8572C29.1744 74.7912 26.4013 73.489 23.2729 73.489C21.6856 73.4292 20.2044 73.7605 18.8294 74.4783C17.399 74.943 16.1624 75.7345 15.115 76.8572C13.9891 77.8971 13.1955 79.1348 12.7295 80.5612C12.005 81.9324 11.6774 83.4094 11.7374 84.9922L12.1481 88.0521C12.6972 90.003 13.6846 91.6917 15.115 93.1273C17.3713 95.1932 20.1445 96.4954 23.2729 96.4954Z" fill="white"/>
<path d="M24.1634 127.31C24.0711 128.418 23.9558 129.583 23.3421 130.517C22.8161 131.313 21.9809 131.842 21.2426 132.445C18.5156 134.667 16.9791 137.994 15.5303 141.196C21.9347 142.126 28.27 137.929 34.6745 138.891C35.7634 139.052 36.8662 139.365 37.9505 139.167C39.0349 138.969 40.0915 138.017 39.9208 136.931C39.8747 136.636 39.7408 136.36 39.6117 136.089C38.2089 133.176 36.8016 130.259 35.3989 127.346C36.3494 127.429 36.8016 128.534 37.0692 129.445C38.2228 133.346 39.8977 137.096 42.0341 140.566C41.0282 137.975 40.2346 135.302 39.6716 132.583C41.1066 133.935 42.2556 135.587 43.0308 137.4C43.5383 138.583 43.8659 140 43.2199 141.113" fill="white"/>
<path d="M12.628 127.31C12.5957 127.682 12.5588 128.055 12.508 128.428L12.9187 125.368C12.8449 125.86 12.7341 126.339 12.5542 126.803L13.717 124.056C13.5924 124.346 13.4447 124.609 13.2648 124.862L15.0689 122.533C14.3768 123.417 13.3986 123.987 12.5819 124.737C12.1666 125.115 11.779 125.52 11.4191 125.948C10.464 127.075 9.55036 128.248 8.70596 129.458C7.41861 131.299 6.48655 133.346 5.56371 135.385C4.52091 137.179 3.9949 139.116 3.99028 141.192C3.9303 142.774 4.26251 144.251 4.98233 145.623C5.44836 147.049 6.242 148.282 7.36786 149.327C8.80748 150.753 10.5055 151.738 12.4573 152.285C14.7321 152.598 16.8869 152.971 19.1663 152.741C21.3765 152.515 23.6005 152.212 25.7738 151.71C28.2885 151.13 30.7617 150.366 33.3226 150.008L30.2542 150.417C31.6569 150.233 33.0642 150.182 34.4715 150.357L31.4031 149.948C33.2165 150.205 35.016 150.606 36.8478 150.716C39.524 150.873 42.0526 150.081 44.3966 148.885C44.5489 148.807 44.6919 148.724 44.835 148.632C45.2733 148.301 45.707 147.969 46.1362 147.633C46.5883 147.32 47.0175 146.985 47.4281 146.626C48.3233 145.761 49.1354 144.753 49.7214 143.658C50.9303 141.38 51.3179 139.899 51.4471 137.326C51.4794 136.682 51.3179 136.015 51.2348 135.399C51.1379 134.676 51.1287 134.083 50.9026 133.438C50.049 130.995 48.7708 128.648 47.645 126.316C46.879 124.724 46.1085 123.132 45.3425 121.54C41.0006 127.171 36.6586 132.803 32.3167 138.435C32.469 138.458 32.5889 138.491 32.732 138.546L29.9773 137.386C30.0604 137.428 30.1434 137.474 30.2172 137.529L27.8825 135.73C27.9978 135.826 28.0901 135.919 28.187 136.034L26.3829 133.705C26.5721 133.958 26.7151 134.221 26.8397 134.511L25.6769 131.764C26.0599 132.721 26.3044 133.733 26.6459 134.704C27.3242 136.632 28.1455 138.518 28.9576 140.396C29.8527 142.457 30.8863 144.454 32.0583 146.373C32.7827 147.712 33.7748 148.788 35.0298 149.598C36.1419 150.615 37.4523 151.301 38.9519 151.655L42.0203 152.064C43.6076 152.124 45.0887 151.793 46.4638 151.075C47.442 150.804 48.291 150.307 49.0108 149.598C50.2658 148.788 51.2579 147.712 51.9823 146.373C52.3699 145.457 52.7575 144.541 53.1451 143.626C53.6942 141.587 53.6942 139.549 53.1451 137.511C52.1438 134.915 51.3502 132.247 50.7826 129.527C44.3551 133.259 37.9275 136.991 31.5046 140.718C32.0583 141.247 32.5659 141.813 33.0365 142.415L31.2324 140.087C31.966 141.054 32.5751 142.093 33.0596 143.207L31.8968 140.46C32.1367 141.04 32.3259 141.629 32.4136 142.25L32.0029 139.19C32.0352 139.494 32.0398 139.788 32.0075 140.096L32.4182 137.037C32.3813 137.276 32.3259 137.497 32.2429 137.727L33.4056 134.98C33.3595 135.09 33.3087 135.201 33.2488 135.307C32.4044 136.627 31.9476 138.053 31.8784 139.581C31.5369 141.109 31.6015 142.641 32.086 144.169C32.4413 145.664 33.1334 146.971 34.1485 148.08C34.9606 149.331 36.0403 150.32 37.3831 151.043L40.1377 152.202C42.1818 152.75 44.2259 152.75 46.27 152.202L49.0246 151.043C50.7596 150.021 52.1392 148.646 53.1635 146.916C53.7957 145.728 54.414 144.481 54.6585 143.152C54.7693 142.567 55.1292 140.676 55.0923 139.554C55.0554 138.431 54.8293 137.239 54.6493 136.13C54.3632 134.326 53.4727 132.596 52.6929 130.986C52.3053 130.185 51.8439 129.421 51.3133 128.704C50.2382 127.24 49.1307 125.717 47.8065 124.448L45.4717 122.648C44.1474 121.806 42.717 121.351 41.1851 121.282C40.1608 121.006 39.1411 121.006 38.1167 121.282C36.5802 121.351 35.1498 121.806 33.8301 122.648L31.4954 124.448L29.6912 126.776C28.8468 128.096 28.39 129.523 28.3208 131.05C27.9794 132.578 28.044 134.11 28.5285 135.638C29.1006 138.362 29.8896 141.026 30.8909 143.621L51.9731 134.759C50.7596 132.78 49.6983 130.724 48.7893 128.589L49.9521 131.336C49.2969 129.785 48.7247 128.198 48.2356 126.587C48.1387 126.27 48.0372 125.957 47.9172 125.648C47.4743 124.507 47.0682 123.251 46.3899 122.216C45.0795 120.219 44.6319 119.809 43.0216 118.567C41.5958 117.472 41.905 117.647 40.2392 116.943C39.7686 116.745 39.0534 116.34 38.4489 116.253L35.3805 115.843L32.3121 116.253L29.5574 117.412C28.2147 118.135 27.135 119.124 26.3229 120.375C25.6077 121.093 25.114 121.94 24.8417 122.915C24.3203 123.813 24.0573 124.779 24.0527 125.819C23.7759 126.84 23.7759 127.857 24.0527 128.879C24.1219 130.411 24.5787 131.837 25.4231 133.153C26.8766 136.172 28.4177 139.167 29.7881 142.222L28.6254 139.475C28.6946 139.65 28.7453 139.807 28.7822 139.986L28.3716 136.926C28.39 137.096 28.39 137.234 28.3716 137.405L28.7822 134.345C28.7638 134.446 28.7361 134.547 28.6992 134.649L29.862 131.902C29.7743 132.104 29.6728 132.274 29.539 132.449L31.3431 130.121C31.2324 130.25 31.117 130.356 30.9878 130.471L33.3226 128.671C33.0919 128.846 32.8566 128.98 32.5935 129.095L35.3482 127.935C35.1175 128.018 34.8914 128.069 34.6515 128.106L37.7199 127.696C37.2769 127.737 36.8524 127.724 36.4095 127.673L39.4779 128.083C37.0508 127.756 34.633 127.167 32.169 127.25C29.7051 127.333 27.4072 127.705 25.0863 128.202C22.2763 128.8 19.5308 129.698 16.6746 130.084L19.7431 129.675C18.4003 129.845 17.0576 129.886 15.7149 129.725L18.7833 130.135L18.5895 130.107C20.8874 135.739 23.1852 141.371 25.4831 147.003C26.5213 144.712 27.5826 142.406 29.1237 140.4L27.3195 142.728C27.8179 142.093 28.3623 141.491 28.9622 140.948C29.562 140.405 30.2819 139.945 30.8771 139.374C32.8566 137.469 34.0978 135.168 34.9237 132.583C35.4636 130.899 35.542 129.076 35.6897 127.319C35.7496 125.736 35.4174 124.259 34.6976 122.888C34.2316 121.461 33.4379 120.228 32.3121 119.184C31.2693 118.061 30.0281 117.27 28.5977 116.805C27.2226 116.082 25.7415 115.756 24.1542 115.816L21.0858 116.225C19.1294 116.773 17.436 117.757 15.9964 119.184L14.1922 121.512C13.1494 123.306 12.6234 125.244 12.6188 127.319L12.628 127.31Z" fill="white"/>
<path d="M6.20026 143.392C5.27743 144.146 5.12516 145.476 5.04672 146.668C4.91291 148.609 4.7791 150.547 4.6499 152.488C20.0751 150.643 35.7402 152.382 51.2023 150.85C51.5991 150.809 52.0421 150.744 52.2728 150.422C52.4158 150.229 52.4481 149.981 52.4804 149.741C52.7065 147.813 52.7434 145.867 52.6004 143.935" fill="white"/>
<path d="M3.75015 140.953C2.07059 142.43 1.71992 144.675 1.57226 146.778C1.43845 148.683 1.30926 150.583 1.18006 152.488C1.0647 154.195 2.86885 156.151 4.64069 155.939C19.2769 154.204 34.0468 155.658 48.7153 154.517C49.9334 154.421 51.2162 154.384 52.4159 154.135C54.0908 153.79 55.392 152.493 55.7842 150.836C56.0657 149.64 56.0887 148.287 56.1257 147.063C56.1533 146.019 56.1257 144.974 56.0518 143.934C55.9872 143.01 55.7104 142.163 55.0367 141.496C54.4369 140.898 53.4494 140.447 52.5912 140.483C50.824 140.562 48.9921 142.006 49.1306 143.934C49.269 145.862 49.2459 147.942 48.9875 149.921L49.1121 149.005C49.0937 149.125 49.066 149.24 49.0198 149.355L49.3705 148.531C50.4133 147.703 50.6855 147.427 50.1872 147.712L51.0132 147.362C50.8194 147.436 50.6348 147.477 50.4272 147.505L51.3454 147.381C39.2885 148.706 27.1025 147.804 15.0087 148.26C11.5435 148.388 8.08748 148.628 4.6453 149.037L8.10594 152.488C8.26282 150.229 8.30435 147.924 8.59965 145.678L8.47507 146.594C8.53967 146.157 8.63657 145.738 8.79806 145.329L8.44738 146.152C8.52583 145.982 8.61811 145.826 8.70578 145.664C8.85343 145.444 8.75654 145.572 8.40586 146.051C8.47969 145.973 8.55812 145.899 8.64118 145.83C10.0024 144.629 9.96083 142.158 8.64118 140.948C7.18771 139.618 5.199 139.669 3.74554 140.948L3.75015 140.953Z" fill="white"/>
<path d="M29.539 5.08581C24.6849 7.43246 19.5632 10.0138 16.7578 14.6151C14.4922 18.3329 14.0723 22.8559 13.7955 27.1995C13.3664 33.922 13.1357 40.6951 13.9662 47.3807C14.7921 54.0664 16.7116 60.706 20.3199 66.4024C21.3535 68.0358 22.5486 69.6095 24.1451 70.6954C25.0818 66.1539 24.2604 61.4652 23.9928 56.8409C23.6329 50.6016 24.2881 44.3485 24.9987 38.1368C25.5155 33.6137 26.0692 29.063 27.3888 24.701C29.253 18.5353 32.6398 12.7561 33.235 6.34196C33.2627 6.05668 33.2811 5.7576 33.1658 5.49533C32.7182 4.45544 31.1079 5.07661 30.0374 4.69931C32.1737 3.97691 34.5039 4.94318 36.4188 6.1303C37.5446 6.8297 38.6382 7.63492 39.3811 8.73002C40.7884 10.8098 40.6823 13.5706 40.0225 15.9908C39.1181 19.3083 37.3139 22.2946 35.8743 25.4142C33.092 31.4419 31.6754 37.9941 30.2773 44.4819C29.4006 48.5494 28.5239 52.6124 27.6519 56.6799C30.2819 53.2749 31.2878 48.9221 32.0215 44.689C32.9812 39.172 33.5995 33.5953 33.8718 28.0048C33.9825 25.7501 34.0379 23.4863 33.8118 21.2409C35.9481 27.8023 38.0937 34.8699 36.0773 41.4681C35.173 44.4267 33.4842 47.0724 32.0861 49.8332C28.6347 56.6615 26.9643 64.3778 27.2781 72.0205C26.1199 60.7382 23.8082 49.6031 21.0859 38.5923C19.877 33.7103 18.5804 28.6489 19.5447 23.7118C20.6983 17.7991 24.8972 13.0092 28.9392 8.52757C28.3394 12.1534 26.729 15.5215 25.5662 19.0047C21.5242 31.1014 22.8854 44.4129 19.4386 56.6937C18.2066 51.5955 16.9654 46.4375 16.9424 41.192C16.9377 39.5447 17.0623 37.8515 17.7452 36.3515C18.7419 34.1705 20.7767 32.675 22.7008 31.2441C25.7693 28.9572 28.7685 26.5784 31.7308 24.1535C32.5982 23.4449 33.4749 22.7179 34.1025 21.793C34.8638 20.6703 35.2145 19.3314 35.4821 18.0016C35.9804 15.5169 36.2342 12.9862 36.2388 10.4509C34.5685 17.431 32.8982 24.4066 31.2278 31.3867C30.7249 33.4895 30.162 35.7027 28.6531 37.2579" fill="white"/>
<path d="M27.7899 2.1046C23.568 4.14757 19.1937 6.36538 16.0099 9.89916C14.1181 12.0019 12.7616 14.3992 11.8803 17.0817C10.9989 19.7643 10.7083 22.4146 10.4822 25.111C9.57317 36.0022 9.35169 47.4547 12.697 57.9825C13.6198 60.8859 14.8103 63.7386 16.2914 66.4028C17.851 69.205 19.7244 71.8185 22.3913 73.6728C24.1493 74.8967 27.0609 73.6912 27.4762 71.6114C27.993 69.0301 28.1129 66.4212 27.9745 63.7985C27.8499 61.4012 27.5638 59.0131 27.4346 56.6113C27.1716 51.7569 27.5223 46.8934 28.0206 42.0667C28.3021 39.3657 28.602 36.6648 28.9619 33.973L28.8373 34.8887C29.1696 32.45 29.5664 30.0205 30.1662 27.6325C30.7292 25.3686 31.509 23.1738 32.3534 21.002C33.1977 18.8302 34.0652 16.7735 34.8219 14.6201C35.6525 12.2412 36.2431 9.84394 36.5707 7.35005C36.6861 6.48501 36.7737 5.6982 36.5615 4.82395C36.2754 3.65983 35.5233 2.69817 34.5082 2.07239C33.2393 1.29018 31.8227 1.52484 30.4339 1.34539L31.3521 1.46963C31.2136 1.44662 31.0845 1.41441 30.946 1.373V8.02644C31.2506 7.92981 31.5551 7.8608 31.8735 7.81478L30.9553 7.93902C31.3982 7.893 31.8273 7.8976 32.2703 7.93902L31.3521 7.81478C32.1273 7.92061 32.8609 8.14607 33.5853 8.44516L32.7594 8.09546C33.3039 8.33473 33.8253 8.6016 34.3374 8.90528C34.5866 9.05252 34.8312 9.20437 35.0711 9.36081C35.2603 9.48504 35.6525 9.65989 35.7724 9.84854C35.7263 9.77953 35.1588 9.34701 35.5233 9.65989C35.6202 9.74271 35.7171 9.82094 35.8094 9.90376C36.0216 10.0924 36.22 10.2903 36.4092 10.5019C36.8429 10.9851 36.3861 10.3363 36.2846 10.3133C36.34 10.3271 36.46 10.5709 36.4923 10.6216C36.6538 10.8792 36.7922 11.1461 36.9168 11.4222L36.5661 10.5986C36.8245 11.2151 36.986 11.8501 37.0829 12.5127L36.9583 11.597C37.0598 12.4575 37.0367 13.3179 36.9306 14.1783L37.0552 13.2627C36.8291 14.9007 36.2985 16.4652 35.6617 17.9882L36.0124 17.1646C35.0434 19.4514 33.8253 21.6186 32.7963 23.8778C31.6381 26.4223 30.6553 29.0359 29.8432 31.7092C28.339 36.6556 27.3377 41.74 26.2488 46.7922C25.6028 49.7876 24.9568 52.7784 24.3155 55.7738C23.9509 57.4671 24.68 59.1558 26.318 59.846C27.0055 60.1359 27.8407 60.2555 28.5697 60.0208C29.4833 59.7263 30.0601 59.1926 30.6369 58.4334C33.4192 54.7846 34.5635 50.1511 35.3387 45.7109C36.2569 40.4562 36.8983 35.1463 37.2305 29.8273C37.4105 26.9745 37.5443 24.1033 37.2721 21.2505C35.0065 21.5542 32.7409 21.8625 30.4754 22.1662C31.652 25.7828 32.7917 29.4362 33.3039 33.2138L33.1793 32.2982C33.4469 34.3917 33.5115 36.4945 33.2393 38.5927L33.3639 37.677C33.1331 39.3427 32.6763 40.9393 32.0304 42.49L32.381 41.6663C31.5966 43.5023 30.6046 45.2415 29.6679 47.0038C28.6389 48.941 27.7346 50.9425 26.9455 52.9901C25.4275 56.9288 24.5231 61.0331 24.0571 65.2203C23.8033 67.4795 23.7295 69.7571 23.8171 72.0301H30.7384C29.5848 60.8767 27.3977 49.875 24.74 38.9884C24.0063 35.9884 23.2081 33.0021 22.7928 29.9377L22.9174 30.8534C22.659 28.838 22.5805 26.8134 22.8297 24.7935L22.7051 25.7091C22.9266 24.0987 23.3649 22.5435 23.9832 21.0434L23.6326 21.8671C24.5462 19.7091 25.7966 17.7213 27.2039 15.8532C27.2778 15.752 27.3516 15.6369 27.4346 15.5495C27.2685 15.7244 26.964 16.1477 27.3054 15.7152C27.4854 15.4897 27.6653 15.2642 27.8453 15.0388C28.2098 14.5925 28.5836 14.1461 28.9573 13.709C29.751 12.7842 30.5584 11.8823 31.3751 10.9759L25.589 7.61693C25.146 10.2028 24.2186 12.6553 23.3003 15.0986C22.3821 17.5419 21.5654 19.9897 20.9702 22.5297C19.7382 27.8119 19.2306 33.2368 18.7277 38.6295C18.4555 41.5697 18.1832 44.5099 17.7956 47.4363L17.9202 46.5207C17.5003 49.645 16.9374 52.7462 16.0884 55.7831H22.7605C21.9438 52.4057 21.1363 49.0192 20.6564 45.5728L20.781 46.4885C20.4396 43.9394 20.1904 41.2844 20.5318 38.7215L20.4072 39.6372C20.5226 38.8872 20.7026 38.1648 20.984 37.4608L20.6333 38.2844C20.8318 37.8289 21.0671 37.3964 21.3485 36.9823C21.3855 36.9316 21.5239 36.6924 21.5608 36.6878C21.5654 36.6878 20.9794 37.3872 21.3578 36.9592C21.5193 36.7752 21.6761 36.5911 21.8469 36.4163C22.1883 36.062 22.5528 35.7261 22.9266 35.404C23.1158 35.243 23.3096 35.0865 23.5034 34.9301C23.5772 34.8703 23.651 34.815 23.7248 34.7552C24.0524 34.493 23.0742 35.2476 23.5403 34.8933C25.5982 33.338 27.6607 31.7874 29.6864 30.1908C31.5228 28.746 33.4054 27.3242 35.1449 25.7643C37.0921 24.0159 38.2087 21.7382 38.744 19.2029C39.3531 16.3363 39.6714 13.3823 39.6807 10.4513C39.6853 8.73044 38.361 7.28564 36.6814 7.06017C35.0019 6.83471 33.2854 7.85159 32.884 9.53106C31.8781 13.7274 30.8768 17.9192 29.8709 22.1155C29.3726 24.1953 28.8743 26.2751 28.3759 28.3503C27.933 30.2 27.5731 32.1003 26.8533 33.8672L27.2039 33.0436C27.024 33.4669 26.8256 33.881 26.5856 34.2767C26.4795 34.4516 26.318 34.6264 26.2303 34.8104C26.5902 34.3595 26.6548 34.2675 26.4287 34.5436C26.3503 34.6356 26.2626 34.7276 26.1796 34.8151C24.9384 36.131 24.7723 38.4086 26.1796 39.697C27.5869 40.9854 29.7463 41.1004 31.0752 39.697C33.7791 36.8304 34.4067 32.8687 35.288 29.1831C36.1923 25.3962 37.1013 21.6094 38.0057 17.8225C38.5225 15.6692 39.0347 13.5158 39.5515 11.3624C37.2859 11.0587 35.0203 10.7504 32.7548 10.4467C32.7502 12.163 32.6348 13.8701 32.4087 15.5725L32.5333 14.6569C32.298 16.3501 32.0304 18.094 31.3844 19.6861L31.735 18.8624C31.6059 19.1569 31.4674 19.4468 31.3059 19.7229C31.2183 19.8701 31.1121 20.0956 30.9876 20.2106C31.0152 20.183 31.5551 19.5618 31.1583 19.9759C30.6553 20.5051 30.1385 20.9974 29.5756 21.4622C28.4036 22.433 27.2178 23.3855 26.0319 24.3287C25.4459 24.7981 24.8553 25.2628 24.2647 25.7229C23.9694 25.953 23.6741 26.1831 23.3788 26.4131C23.2081 26.5466 22.7513 26.8917 23.4572 26.3533C23.2773 26.4913 23.1019 26.6294 22.922 26.7628C21.5885 27.7843 20.2319 28.769 18.9076 29.8043C16.499 31.6908 14.4642 34.1111 13.8413 37.1847C13.1584 40.5482 13.5229 44.0268 13.9889 47.3949C14.455 50.7631 15.2763 54.2278 16.093 57.6052C16.4344 59.0177 17.9571 60.2049 19.429 60.1405C20.901 60.076 22.3452 59.119 22.7651 57.6052C25.2475 48.6879 25.326 39.3565 26.5533 30.2368L26.4287 31.1524C26.9317 27.453 27.6377 23.7674 28.7958 20.2152C29.954 16.663 31.6243 13.1845 32.2657 9.43903C32.3995 8.64761 32.4133 7.95282 32.0903 7.19361C31.8089 6.53103 31.329 5.88685 30.6738 5.54175C29.3588 4.85156 27.5315 4.91598 26.4795 6.0801C23.8725 8.9697 21.2516 11.9283 19.2352 15.2734C17.0204 18.9499 15.7331 23.0634 15.7331 27.3702C15.7331 31.8242 16.9235 36.1862 17.971 40.4792C19.0184 44.7722 19.9504 48.8351 20.8041 53.0407C21.773 57.7938 22.6082 62.5699 23.2588 67.3783L23.1342 66.4626C23.3834 68.3123 23.6049 70.162 23.7987 72.0163C23.8956 72.955 24.1217 73.7648 24.8138 74.455C25.4136 75.0532 26.4011 75.5041 27.2593 75.4673C29.0727 75.3845 30.7938 73.9489 30.7199 72.0163C30.6184 69.3982 30.743 66.7801 31.0891 64.1804L30.9645 65.096C31.509 61.1297 32.561 57.2555 34.1067 53.5606L33.7561 54.3843C35.5187 50.2201 38.2364 46.4471 39.4869 42.0713C40.8296 37.3642 40.3728 32.381 39.2746 27.6739C38.6932 25.1846 37.9227 22.7459 37.129 20.3164C36.5938 18.6738 35.0757 17.6109 33.3316 17.8456C31.7673 18.0572 30.1662 19.525 30.3323 21.2367C30.623 24.2781 30.4569 27.3426 30.2539 30.3794C30.0509 33.4163 29.7417 36.4853 29.3357 39.5268L29.4603 38.6111C28.8512 43.0927 28.2513 47.763 26.4841 51.964L26.8348 51.1404C26.2534 52.4885 25.5382 53.7677 24.6431 54.9364C26.7517 55.8245 28.8604 56.7079 30.9691 57.596C31.8458 53.5284 32.7225 49.4655 33.5946 45.398C34.4205 41.5559 35.251 37.7093 36.3723 33.9408C37.0044 31.8242 37.7289 29.7352 38.5825 27.6969L38.2318 28.5205C40.0036 24.3564 42.6799 20.4039 43.5704 15.913C44.0364 13.5664 44.1426 11.0173 43.2197 8.75804C42.6568 7.38686 41.9185 6.16753 40.8204 5.14604C39.916 4.29941 38.8732 3.57241 37.8073 2.94203C35.2234 1.41441 32.0627 0.429739 29.0911 1.3638C27.6884 1.80552 26.4795 3.14909 26.5487 4.69052C26.6179 6.23194 27.5823 7.54791 29.0911 8.01724C30.1062 8.33473 31.1214 8.21049 32.1503 8.31632L31.2321 8.19209C31.4028 8.21969 31.5597 8.2519 31.7166 8.31632L30.8907 7.96662C31.186 8.12307 31.0522 8.00804 30.48 7.61693C30.097 7.05097 29.9863 6.92213 30.1478 7.22582L29.7971 6.40219C29.8432 6.50802 29.8663 6.61845 29.8802 6.73348L29.7556 5.81783C29.7786 6.32397 29.6956 6.83931 29.6264 7.34085L29.751 6.4252C29.2065 10.2627 27.7622 13.8701 26.3365 17.4498C24.8276 21.2321 23.5172 25.0097 22.7743 29.022C21.9668 33.4025 21.51 37.8611 21.0532 42.2875C20.5964 46.7139 20.3011 50.8459 20.4303 55.1389C20.5687 59.8828 21.5008 64.6405 20.8779 69.3844L21.0025 68.4688C20.9425 68.9059 20.8687 69.3384 20.781 69.7709C22.4744 69.0853 24.1678 68.3951 25.8658 67.7095C25.7597 67.6359 25.6536 67.5623 25.5521 67.4841C25.995 67.8292 26.0781 67.8936 25.8012 67.6635C25.612 67.4933 25.4136 67.3276 25.2337 67.1482C24.9107 66.8353 24.6062 66.4994 24.3201 66.1543C24.237 66.0531 24.1586 65.9565 24.0755 65.8552C24.417 66.3016 24.4816 66.3798 24.2647 66.0899C24.154 65.9335 24.0386 65.777 23.9279 65.616C23.651 65.2157 23.3834 64.8061 23.125 64.392C22.0776 62.7034 21.1778 60.9319 20.4026 59.1052L20.7533 59.9288C19.0276 55.8153 17.9617 51.4671 17.3619 47.0498L17.4865 47.9655C16.9189 43.6725 16.7897 39.3381 16.882 35.0129C16.9743 30.6877 17.1173 26.7076 17.6526 22.6171L17.528 23.5327C17.8141 21.4438 18.2663 19.3824 19.0876 17.436L18.7369 18.2597C19.0599 17.5143 19.429 16.7965 19.8674 16.1109C20.0612 15.8072 20.2688 15.4161 20.5272 15.1584L20.2042 15.5771C20.2781 15.4851 20.3519 15.3931 20.4257 15.3011C20.5364 15.163 20.6518 15.0296 20.7718 14.8961C21.2378 14.367 21.7407 13.8655 22.2668 13.3915C22.5298 13.1523 22.802 12.9222 23.0789 12.7013C23.1711 12.6277 23.2634 12.5541 23.3557 12.4805L22.9404 12.8026C23.0973 12.6645 23.2773 12.5495 23.4434 12.4299C25.875 10.6768 28.5743 9.34701 31.2644 8.04485C32.8978 7.25343 33.4654 4.80555 32.5056 3.32394C31.4259 1.65368 29.5156 1.23956 27.7715 2.0862L27.7899 2.1046Z" fill="white"/>
<path d="M58.3954 43.6404C56.4067 44.3582 53.9658 43.7186 52.2724 44.9793C51.7556 45.3659 51.368 45.895 50.985 46.4149C48.3227 50.073 45.6049 53.8322 44.3637 58.1804C43.1271 62.5194 43.4086 67.2725 41.526 71.3722C41.0092 72.495 40.3171 73.5717 39.3112 74.2895C38.3053 75.0073 36.9487 75.3201 35.7998 74.86C36.5611 75.8171 37.3179 76.7695 38.0792 77.7266C38.2545 77.9475 38.4806 78.1913 38.7621 78.1729C39.0297 78.1545 39.2143 77.9061 39.3619 77.676C41.6736 74.1192 43.9853 70.5578 46.3017 67.001C47.0584 65.8369 47.8197 64.6636 48.7518 63.6375C49.7761 62.5102 50.9897 61.5669 52.217 60.6651C57.0712 57.0945 62.4513 53.7954 65.4643 48.5821" fill="white"/>
<path d="M57.473 40.3134C57.0208 40.4652 56.564 40.5619 56.0934 40.6263L57.0116 40.502C55.7565 40.6539 54.4969 40.6815 53.2464 40.9024C51.8022 41.1554 50.4133 41.8778 49.389 42.9223C48.4477 43.8748 47.7048 45.0711 46.925 46.157C46.2513 47.0957 45.5915 48.0389 44.964 49.0098C43.589 51.131 42.4216 53.3626 41.5357 55.7323C40.7189 57.9271 40.3637 60.2323 40.0453 62.5421C39.6992 65.1051 39.3531 67.6864 38.3519 70.0882L38.7025 69.2646C38.5503 69.6143 38.3888 69.964 38.2088 70.2999C38.1212 70.4655 38.0243 70.6266 37.9274 70.783C37.8628 70.8889 37.3783 71.5514 37.7751 71.0407C38.1719 70.53 37.7197 71.0913 37.6274 71.1833C37.4982 71.3168 37.3598 71.4364 37.226 71.5652C36.9768 71.8091 37.9597 71.0729 37.3414 71.4594C37.166 71.5698 36.9815 71.6619 36.7923 71.7539L37.6182 71.4042C37.286 71.5422 36.9538 71.6435 36.5985 71.7079L37.5167 71.5836C37.1614 71.6297 36.8246 71.6343 36.4693 71.5928L37.3875 71.7171C37.1522 71.6757 36.9353 71.6159 36.7138 71.5376C36.0033 71.28 35.1266 71.4318 34.4621 71.7125C33.7977 71.9932 33.1517 72.4717 32.8056 73.1251C32.5196 73.668 32.3627 74.2524 32.335 74.869C32.2935 75.8306 32.7826 76.599 33.3501 77.3076C33.8715 77.9656 34.3929 78.619 34.9143 79.277C35.8741 80.4825 36.8846 81.6006 38.5918 81.6098C40.299 81.619 41.4388 80.7494 42.3431 79.4242C42.8553 78.6742 43.3352 77.8966 43.8289 77.1374C45.6653 74.3122 47.5018 71.487 49.3382 68.6618C49.735 68.0499 50.1365 67.4379 50.561 66.8443L50.6856 66.6741C50.9024 66.3842 50.8517 66.4486 50.5241 66.8765C50.6486 66.7661 50.7455 66.6005 50.8517 66.4716C51.1424 66.1265 51.4469 65.7952 51.7699 65.4824C52.2913 64.9716 52.8496 64.5115 53.4125 64.0514C53.7863 63.7477 52.7112 64.5759 53.288 64.1434C53.4541 64.0192 53.6202 63.8949 53.7863 63.7707C54.0908 63.5452 54.3954 63.3244 54.6999 63.1035C57.1454 61.332 59.6371 59.6065 61.9672 57.6832C64.4958 55.5942 66.7798 53.1694 68.4409 50.3304C69.3545 48.7705 68.8516 46.4791 67.1997 45.6095C65.5478 44.7398 63.4391 45.1815 62.4655 46.8472C62.1702 47.3487 61.8611 47.8365 61.5243 48.3104C61.3628 48.5405 60.7398 49.2537 61.4643 48.4162C61.2474 48.6693 61.0444 48.9362 60.8275 49.1892C60.0523 50.0911 59.2079 50.9285 58.3266 51.7246C57.916 52.0927 57.4961 52.4562 57.067 52.8059C56.827 53.0037 56.5871 53.197 56.3472 53.3902C56.1257 53.5651 55.2674 54.2092 56.1672 53.5329C55.2213 54.2368 54.2754 54.9408 53.3156 55.631C51.0685 57.2415 48.6692 58.7829 46.7174 60.7522C44.6456 62.8412 43.1506 65.487 41.5633 67.9348C40.6543 69.3336 39.7454 70.7324 38.8364 72.1312C38.3842 72.8306 37.9274 73.53 37.4752 74.2294C37.2675 74.5469 37.0645 74.8643 36.8569 75.1818C36.7554 75.3429 36.6492 75.4993 36.5477 75.6604C36.4877 75.757 36.4231 75.849 36.3632 75.9457C36.5662 75.6236 36.8292 75.3613 37.1568 75.1634L37.9827 74.8137L37.8305 74.8505L38.7487 74.7263L38.5872 74.7079L40.336 75.1772C39.8607 74.9656 40.7512 75.6788 40.5713 75.3567C40.5067 75.2371 40.3867 75.1266 40.3037 75.0208C40.0683 74.7217 39.8284 74.4226 39.5931 74.1235C39.1409 73.5576 38.6933 72.987 38.2411 72.4211C37.1199 74.3444 35.9986 76.2677 34.8728 78.1911C37.5951 79.1849 40.8666 77.9794 42.6984 75.8582C44.3457 73.9533 45.3285 71.5882 45.9099 69.1588C46.4036 67.0882 46.6112 64.967 46.925 62.8642C47.2388 60.7614 47.7325 58.6357 48.5723 56.6295L48.2216 57.4531C49.1167 55.3734 50.2795 53.427 51.5484 51.5589C52.1759 50.6341 52.8312 49.723 53.4864 48.8165C53.6433 48.5957 53.8047 48.3794 53.9616 48.1586C54.0308 48.0665 54.1001 47.9193 54.1923 47.8457C54.1139 47.9101 53.6894 48.4254 54.0124 48.0895C54.1231 47.9745 54.2246 47.8503 54.34 47.7352C54.4323 47.6478 54.7968 47.3487 54.3492 47.6984C53.9016 48.0481 54.2523 47.7859 54.3677 47.7214C54.4923 47.6524 54.6215 47.5926 54.7506 47.5328L53.9247 47.8825C54.4092 47.6892 54.9075 47.5788 55.4243 47.5052L54.5061 47.6294C56.1026 47.4316 57.7683 47.4914 59.3048 46.9668C61.0167 46.3871 62.3225 44.5696 61.7227 42.7199C61.1736 41.0266 59.3002 39.6876 57.4638 40.3088L57.473 40.3134Z" fill="white"/>
<path d="M56.0292 43.3136C59.1899 41.3304 63.2088 40.7599 66.7987 41.7813C67.2785 41.9194 67.7907 42.1126 68.0353 42.5451C68.2291 42.8856 68.2106 43.3044 68.1645 43.6955C67.8184 46.401 66.1942 48.7523 64.6208 50.9839C63.1904 53.0084 61.7415 55.056 59.8497 56.6573C58.6224 57.6971 57.2335 58.53 55.8492 59.3582C53.4868 60.7708 51.1243 62.188 48.7572 63.6006C47.3499 60.5453 48.951 56.9701 50.8705 54.2048C54.202 49.3964 58.8208 45.2047 64.4823 43.6909C62.2722 48.6004 59.3237 53.1741 55.7662 57.2186" fill="white"/>
<path d="M57.7775 46.2951C58.3727 45.927 58.9864 45.6095 59.6278 45.3335L58.8018 45.6832C59.9184 45.223 61.0766 44.9101 62.2717 44.7399L61.3535 44.8641C62.5531 44.7123 63.7528 44.7031 64.9479 44.8549L64.0297 44.7307C64.8187 44.8411 65.6216 44.9884 66.3645 45.2782L65.5385 44.9285C65.6862 44.9976 66.0922 45.2736 65.617 44.9055C65.4508 44.8089 65.3216 44.6755 65.2248 44.5144C65.0356 44.2384 65.0033 44.2153 65.1232 44.4454L64.7726 43.6218C64.8095 43.7276 64.8372 43.8334 64.851 43.9439L64.7264 43.0282C64.7449 43.2583 64.731 43.4745 64.708 43.7046L64.8326 42.789C64.708 43.6908 64.4542 44.5466 64.1081 45.3841L64.4588 44.5604C63.6559 46.4332 62.4609 48.0896 61.2889 49.7461C61.0166 50.128 60.7444 50.5099 60.4675 50.8918C60.3107 51.1035 60.1215 51.3105 59.983 51.536C60.5229 50.6525 60.0707 51.4209 59.9046 51.628C59.2725 52.4056 58.5988 53.151 57.8605 53.832C57.6621 54.0161 57.4591 54.1909 57.2468 54.3658C57.1407 54.4532 57.03 54.5406 56.9192 54.628C57.3437 54.3013 57.4083 54.2507 57.1176 54.467C56.7116 54.7431 56.3148 55.0283 55.9041 55.2952C54.9905 55.8796 54.0538 56.4271 53.1264 56.9839C51.0915 58.2032 49.0567 59.418 47.0218 60.6373L51.756 61.875L51.6775 61.7002L52.0282 62.5238C51.8436 62.0637 51.7144 61.5944 51.636 61.102L51.7606 62.0177C51.6822 61.4057 51.6821 60.7983 51.7514 60.1864L51.6268 61.102C51.756 60.1496 52.0328 59.2431 52.402 58.3551L52.0513 59.1787C52.688 57.7063 53.5509 56.3581 54.5014 55.0697C54.6075 54.9225 54.7275 54.7845 54.829 54.6326C54.2384 55.4885 54.5752 54.9547 54.7367 54.7569C54.9813 54.4486 55.2351 54.1449 55.4935 53.8458C55.9872 53.2707 56.504 52.7093 57.0392 52.1709C57.5745 51.6326 58.082 51.1587 58.6357 50.6847C58.9356 50.4271 59.2402 50.1832 59.5447 49.9393C59.8262 49.7139 58.8157 50.4869 59.4201 50.0406C59.5908 49.9163 59.7616 49.7921 59.9323 49.6725C61.1643 48.8166 62.4747 48.085 63.8543 47.4961L63.0284 47.8458C63.8082 47.5237 64.6018 47.2522 65.4139 47.0267C64.1127 45.3381 62.8069 43.6494 61.5057 41.9561C60.4122 44.3764 59.1433 46.7184 57.7083 48.9593C57.0069 50.0498 56.2686 51.1127 55.4935 52.1525C55.3919 52.2906 55.2904 52.424 55.1843 52.5621C54.8613 52.9854 55.1197 52.6587 55.2858 52.4286C55.0874 52.7047 54.8613 52.9624 54.6491 53.2292C54.2199 53.7584 53.777 54.2783 53.3294 54.7891C52.7203 55.4839 52.3143 56.2845 52.3143 57.2277C52.3143 58.0744 52.6927 59.0867 53.3294 59.6664C54.6352 60.8628 56.9515 61.1204 58.225 59.6664C61.9718 55.3872 65.1371 50.6203 67.4811 45.4393C68.0717 44.1371 68.1317 42.7982 67.2088 41.6064C66.3691 40.5205 64.9248 40.0006 63.5729 40.3687C59.5539 41.4684 55.9595 43.7046 52.928 46.5298C51.373 47.9792 50.021 49.6034 48.7429 51.2967C47.4648 52.99 46.3712 54.8535 45.5776 56.8827C45.0931 58.1342 44.8255 59.4916 44.7747 60.8305C44.7147 62.441 45.1346 63.8996 45.776 65.3536C46.0898 66.0622 47.1095 66.7708 47.8432 66.941C48.7475 67.1481 49.6981 67.0791 50.5101 66.5913C53.3525 64.8889 56.2317 63.2324 59.0371 61.4747C60.5091 60.5499 61.9441 59.5192 63.1853 58.2952C64.4265 57.0713 65.4324 55.7369 66.4383 54.3704C68.2793 51.8673 70.1527 49.2998 71.1171 46.3135C71.8138 44.1555 72.0353 41.5926 70.2865 39.8579C68.8423 38.4223 66.5905 38.1325 64.6618 37.9208C61.1043 37.5297 57.3161 38.473 54.2845 40.3411C52.7434 41.2889 52.0144 43.4699 53.0433 45.062C54.0723 46.654 56.1302 47.3166 57.7775 46.2997V46.2951Z" fill="white"/>
<path d="M41.1158 9.9917C41.6372 11.2018 41.6741 12.5546 41.688 13.8706C41.8033 25.4658 40.7144 37.3647 35.7495 47.851C34.8498 49.7559 33.8208 51.6194 33.2855 53.6578C32.8795 55.213 32.7226 56.9339 31.6567 58.1394" fill="white"/>
<path d="M37.7797 10.9072C38.015 11.4869 38.158 12.0851 38.2457 12.7017L38.1211 11.786C38.2964 13.2952 38.2411 14.8413 38.2318 16.3597C38.2226 17.8781 38.1903 19.3413 38.1303 20.8321C38.0104 23.846 37.7658 26.8506 37.369 29.8414L37.4936 28.9258C36.7415 34.4519 35.4264 39.8998 33.2578 45.0486L33.6084 44.225C32.6995 46.3646 31.5921 48.4122 30.7061 50.5609C30.3185 51.4996 30.0048 52.4521 29.7787 53.4413C29.5803 54.3202 29.4049 55.199 29.0543 56.0365L29.4049 55.2128C29.3219 55.4015 29.2342 55.5809 29.1281 55.7604C28.985 56.0042 28.5236 56.5104 29.2065 55.7052C28.6021 56.4184 28.1914 57.1822 28.1914 58.1438C28.1914 58.9905 28.5698 60.0028 29.2065 60.5825C30.4893 61.7604 32.8563 62.0549 34.1022 60.5825C35.205 59.2804 35.8694 57.8172 36.257 56.1607C36.5569 54.8677 36.8707 53.6254 37.3782 52.3923L37.0275 53.2159C37.6043 51.8585 38.2918 50.5563 38.9101 49.2174C39.5838 47.7588 40.2067 46.2772 40.7696 44.7725C41.7571 42.1314 42.5276 39.4167 43.1321 36.6651C44.3779 30.9595 44.9455 25.0975 45.1024 19.2677C45.1485 17.6756 45.1623 16.0836 45.1485 14.4916C45.1393 12.6879 45.1393 10.7645 44.4471 9.07127C44.0918 8.20623 43.6996 7.50223 42.8553 7.0099C42.1124 6.57738 41.0188 6.39333 40.1883 6.6602C39.3577 6.92707 38.541 7.44702 38.1211 8.24764C37.7012 9.04826 37.429 10.0651 37.7704 10.9072H37.7797Z" fill="white"/>
<path d="M30.2881 70.6817C29.6622 67.0438 29.3368 63.266 29.3213 59.4882C30.9451 62.7413 32.1815 66.4441 33.4056 70.122C32.479 65.6196 32.1784 60.7825 32.5379 56.0702C32.9686 50.3985 34.3228 45.0267 35.6615 39.7397" fill="white"/>
<path d="M32.5284 69.6823C32.2124 67.8183 31.9707 65.9294 31.8064 64.0206L31.8901 65.015C31.7382 63.1811 31.6577 61.3371 31.6453 59.4882L27.6788 62.1367C27.7376 62.2566 27.7965 62.3715 27.8554 62.4915C27.6354 62.0317 27.6013 61.9618 27.75 62.2766C27.8337 62.4615 27.9174 62.6414 28.001 62.8263C28.1932 63.256 28.3822 63.6908 28.565 64.1305C28.9059 64.95 29.2313 65.7845 29.5443 66.634C30.195 68.398 30.7993 70.207 31.4005 72.0159C31.949 73.6599 33.2784 74.2446 34.3041 73.55C35.3298 72.8554 36.0115 70.9165 35.649 69.1276C35.2585 67.2037 34.9765 65.2299 34.8092 63.221L34.8929 64.2155C34.6636 61.3521 34.6667 58.4638 34.9022 55.6055L34.8185 56.5999C35.2988 51.0681 36.6034 45.8712 37.9049 40.7342C38.1188 39.8947 37.9421 38.5904 37.6694 37.8459C37.3967 37.1013 36.8358 36.3267 36.2812 36.1219C35.6862 35.902 35.0199 35.952 34.49 36.5016C33.9601 37.0513 33.6626 37.7859 33.4209 38.7403C32.4479 42.5831 31.4717 46.4408 30.8396 50.4735C30.1733 54.716 29.8913 59.1584 30.1888 63.5209C30.3655 66.1043 30.6629 68.6429 31.165 71.1164C32.5811 70.152 33.9973 69.1925 35.4135 68.2281C34.0872 64.2504 32.7206 60.3727 30.9666 56.8348C30.7435 56.385 30.2787 56.0202 29.9409 55.8703C29.4358 55.6455 28.9059 55.7354 28.4287 56.0602C27.592 56.6299 26.9908 57.9841 27.0001 59.4832C27.0249 63.5858 27.3782 67.7134 28.0506 71.6711C28.3729 73.56 29.7147 74.9092 30.9109 74.2896C32.107 73.6699 32.8786 71.7061 32.5346 69.6773L32.5284 69.6823Z" fill="white"/>
<path d="M23.1404 104.219C24.0988 106.429 25.4207 108.56 27.0826 110.323C27.904 111.193 28.9002 111.909 30.0711 112.235C31.2419 112.561 32.5733 112.496 33.8197 112.384C34.4523 112.328 35 111.891 35 111.221C35 110.635 34.4571 110.002 33.8197 110.058C32.8188 110.146 31.7613 110.267 30.7793 110.011C29.8492 109.769 29.1646 109.141 28.5414 108.443C27.125 106.857 26.0156 104.982 25.1752 103.042C24.925 102.465 24.061 102.335 23.5606 102.623C22.9562 102.972 22.8854 103.633 23.1356 104.214L23.1404 104.219Z" fill="#231815"/>
<path d="M16.5856 76.9837C14.4866 78.0451 11.8627 79.961 9.02717 83.113C7.65081 84.643 0.819654 92.2381 2.1776 102.673C3.27316 111.113 9.05019 116.204 10.5508 117.486C22.3488 127.58 38.658 121.975 40.0436 121.474C42.8837 120.445 49.922 117.904 54.3135 110.649C57.2688 105.765 57.9684 96.2262 53.9314 90.8964C51.1373 87.2069 47.1555 85.3644 44.3291 81.2522C43.8826 80.5997 43.3993 79.4097 43.3901 77.9256C43.3717 75.6237 44.656 73.8225 45.5904 72.7152C49.4755 68.1113 56.7026 64.2932 60.3529 61.5501C67.8607 55.917 73.0762 45.2114 70.1946 41.0073C67.7042 37.3729 59.2666 37.8737 53.6414 40.2629C39.3577 46.3371 41.1023 71.6217 37.0883 71.3736C35.2056 71.2587 34.7775 66.1218 35.2977 61.5501C35.6751 58.2328 35.4956 58.6738 37.9215 52.3424C38.7869 50.0818 40.0067 45.8317 42.4372 37.3269C43.2014 34.6528 45.2866 27.3656 45.7285 22.1506C46.1014 17.7122 46.6077 11.7161 42.7088 6.93763C38.7455 2.07644 32.7337 1.55724 32.1076 1.5113C24.6136 0.978312 19.1726 6.51951 17.428 8.29306C5.80032 20.1336 9.25273 40.557 10.6337 48.7171C11.674 54.8602 13.345 63.3053 20.1531 74.5485" stroke="#231815" stroke-width="2" stroke-miterlimit="10"/>
<path d="M29.5 89.4753C30.3284 89.4753 31 88.5799 31 87.4753C31 86.3708 30.3284 85.4753 29.5 85.4753C28.6716 85.4753 28 86.3708 28 87.4753C28 88.5799 28.6716 89.4753 29.5 89.4753Z" fill="#231815" stroke="#231815" stroke-width="2" stroke-miterlimit="10"/>
<path d="M40 89.4753C41.1046 89.4753 42 88.5799 42 87.4753C42 86.3708 41.1046 85.4753 40 85.4753C38.8954 85.4753 38 86.3708 38 87.4753C38 88.5799 38.8954 89.4753 40 89.4753Z" fill="#231815" stroke="#231815" stroke-width="2" stroke-miterlimit="10"/>
<path d="M37 101.475C39.2091 101.475 41 100.132 41 98.4753C41 96.8185 39.2091 95.4753 37 95.4753C34.7909 95.4753 33 96.8185 33 98.4753C33 100.132 34.7909 101.475 37 101.475Z" fill="#231815" stroke="#231815" stroke-width="2" stroke-miterlimit="10"/>
<path d="M1.13841 156.475C0.827677 152.588 0.710591 144.67 4.53845 135.93C7.4296 129.33 11.3971 124.937 14 122.475" stroke="#231815" stroke-width="2" stroke-miterlimit="10"/>
<path d="M37 101.475L36 107.475" stroke="#231815" stroke-width="2" stroke-miterlimit="10"/>
<path d="M55.9586 153.475C56.1101 149.869 55.9081 144.777 54.2921 138.983C51.9415 130.56 47.7224 124.696 45 121.475" stroke="#231815" stroke-width="2" stroke-miterlimit="10"/>
<path d="M30.3576 133.475H32.4614C33.423 133.475 34.2582 134.138 34.4974 135.087L37.933 148.703C38.1136 149.412 37.924 150.167 37.4319 150.701L33.6803 154.795C33.0708 155.463 32.1092 155.661 31.2921 155.292L26.2493 153.013C25.3374 152.603 24.8363 151.595 25.0485 150.6L28.299 135.17C28.5066 134.18 29.3644 133.475 30.3531 133.475H30.3576Z" fill="#2C50A2"/>
<path d="M28.9326 136.273C30.0675 136.75 31.2561 136.268 31.902 136.004C32.3191 135.837 33.2028 135.416 34.3555 134.137C35.4544 132.914 37.3787 130.777 36.9346 129.207C36.1587 126.445 28.0535 125.259 26.3535 128.141C25.5865 129.443 26.2324 131.403 26.7393 132.941C27.1968 134.318 27.6633 135.74 28.9326 136.273Z" fill="#2C50A2"/>
</svg>
